STARTFONT 2.1
COMMENT
COMMENT Converted from OpenType font "Manrope-ExtraLight.otf" by "otf2bdf 3.0".
COMMENT
FONT -FreeType-Manrope ExtraLight-Medium-R-Normal--58-420-100-100-P-250-ISO10646-1
SIZE 42 100 100
FONTBOUNDINGBOX 54 71 -1 -14
STARTPROPERTIES 19
FOUNDRY "FreeType"
FAMILY_NAME "Manrope ExtraLight"
WEIGHT_NAME "Medium"
SLANT "R"
SETWIDTH_NAME "Normal"
ADD_STYLE_NAME ""
PIXEL_SIZE 58
POINT_SIZE 420
RESOLUTION_X 100
RESOLUTION_Y 100
SPACING "P"
AVERAGE_WIDTH 250
CHARSET_REGISTRY "ISO10646"
CHARSET_ENCODING "1"
FONT_ASCENT 61
FONT_DESCENT 17
COPYRIGHT "Copyright 2019-2021 The Manrope Project Authors (https://github.com/sharanda/manrope)"
_OTF_FONTFILE "Manrope-ExtraLight.otf"
_OTF_PSNAME "Manrope-ExtraLight"
ENDPROPERTIES
CHARS 191
STARTCHAR 0020
ENCODING 32
SWIDTH 205 0
DWIDTH 12 0
BBX 0 0 0 0
BITMAP
ENDCHAR
STARTCHAR 0021
ENCODING 33
SWIDTH 274 0
DWIDTH 16 0
BBX 2 42 7 0
BITMAP
C0
C0
C0
C0
C0
C0
C0
C0
C0
C0
C0
C0
C0
C0
C0
C0
C0
C0
C0
C0
C0
C0
C0
C0
C0
C0
C0
C0
C0
C0
C0
C0
00
00
00
00
00
00
C0
C0
C0
C0
ENDCHAR
STARTCHAR 0022
ENCODING 34
SWIDTH 342 0
DWIDTH 20 0
BBX 11 11 3 31
BITMAP
E060
E060
E060
E060
E060
E060
E060
E060
E060
E060
E060
ENDCHAR
STARTCHAR 0023
ENCODING 35
SWIDTH 908 0
DWIDTH 53 0
BBX 45 42 4 0
BITMAP
00000C003000
00001C007000
00001C007000
000018006000
000018006000
00003800E000
00003800E000
00003000C000
00003000C000
00007001C000
00007001C000
000060018000
000060018000
1FFFFFFFFFF8
1FFFFFFFFFF8
0000C0030000
0001C0070000
0001C0070000
000180060000
000180060000
0003800E0000
0003800E0000
0003000C0000
0003000C0000
0007001C0000
0007001C0000
FFFFFFFFFFC0
FFFFFFFFFFC0
000E00380000
000C00300000
000C00300000
001C00700000
001C00700000
001800600000
001800600000
003800E00000
003800E00000
003000C00000
003000C00000
007001C00000
007001C00000
006001800000
ENDCHAR
STARTCHAR 0024
ENCODING 36
SWIDTH 565 0
DWIDTH 33 0
BBX 29 52 2 -5
BITMAP
00070000
00070000
00070000
00070000
00070000
003FE000
01FFF800
07F9FE00
0F800F80
1E0003C0
1C0001C0
380000E0
38000070
30000070
70000030
70000038
70000038
70000000
30000000
38000000
1C000000
0F000000
07C00000
03F80000
007F8000
000FF000
0001FE00
00001F80
000007C0
000001E0
00000070
00000030
00000038
00000038
00000018
00000018
C0000018
E0000018
E0000038
70000030
78000070
3C0000E0
1E0001E0
0F8007C0
07FCFF80
01FFFE00
003FF000
00070000
00070000
00070000
00070000
00070000
ENDCHAR
STARTCHAR 0025
ENCODING 37
SWIDTH 908 0
DWIDTH 53 0
BBX 46 42 3 0
BITMAP
00FC00000020
03FF00000070
0FEFC00000F0
1E01E00001E0
3800F00003C0
380070000780
700038000F00
600018001E00
600018003C00
E00018007800
E0001800F000
60001801E000
70001803C000
700038078000
3800700F0000
3C00F01E0000
1E01E03C0000
0FCFC0780000
07FF80F00000
00FC01E00000
000003C00000
000007800000
00000F00FE00
00001E03FF80
00003C07EFE0
0000780F00F0
0000F01C0070
0001E0380038
0003C0300018
00078070001C
000F0070001C
001E0070000C
003C0070000C
00780070001C
00F00070001C
01E000300018
03C000380038
0780001C0070
0F00000F00F0
1E000007EFE0
3C000003FF80
10000000FE00
ENDCHAR
STARTCHAR 0026
ENCODING 38
SWIDTH 634 0
DWIDTH 37 0
BBX 33 42 3 0
BITMAP
003FC00000
00FFF80000
03FDFC0000
07801F0000
0F00070000
0E00038000
1C00010000
1C00000000
1800000000
3800000000
3800000000
3800000000
1800000000
1C00000000
1C00000000
0E00000000
0F00000000
0780000000
03C0000000
01E0000000
03F0000000
0FB8000000
1E1C000000
380E003800
7007003800
7003803800
E000C03800
E000703800
E000383800
E0001C3800
E0000E3800
E000073800
E00003B800
E00000F000
7000007000
700000F000
380000F800
1C0003CE00
0F00078700
07F9FF0380
01FFFC0380
007FF00100
ENDCHAR
STARTCHAR 0027
ENCODING 39
SWIDTH 188 0
DWIDTH 11 0
BBX 3 11 3 31
BITMAP
E0
E0
E0
E0
E0
E0
E0
E0
E0
E0
E0
ENDCHAR
STARTCHAR 0028
ENCODING 40
SWIDTH 411 0
DWIDTH 24 0
BBX 13 58 8 -9
BITMAP
0038
0038
0070
00E0
01C0
01C0
0380
0380
0700
0600
0E00
0C00
1C00
1C00
1800
3800
3000
3000
7000
7000
6000
6000
6000
E000
E000
E000
E000
C000
C000
C000
E000
E000
E000
E000
6000
6000
6000
7000
7000
3000
3000
3800
3800
1800
1C00
0C00
0E00
0E00
0700
0700
0380
0180
01C0
00E0
0070
0070
0038
0010
ENDCHAR
STARTCHAR 0029
ENCODING 41
SWIDTH 411 0
DWIDTH 24 0
BBX 13 58 3 -9
BITMAP
C000
E000
7000
3800
3800
1C00
0C00
0E00
0700
0700
0380
0380
0180
01C0
00C0
00E0
00E0
0060
0060
0070
0070
0030
0030
0030
0030
0030
0038
0038
0038
0038
0038
0038
0030
0030
0030
0030
0070
0070
0060
0060
00E0
00E0
00C0
01C0
01C0
0180
0380
0300
0700
0E00
0E00
1C00
1C00
3800
7000
E000
E000
4000
ENDCHAR
STARTCHAR 002A
ENCODING 42
SWIDTH 411 0
DWIDTH 24 0
BBX 19 18 2 24
BITMAP
00E000
00E000
00E000
00E000
00E000
80E000
F0E3E0
FEFFE0
3FFF00
03F800
01F000
03F000
07B800
071C00
0E1E00
1C0E00
1C0700
080200
ENDCHAR
STARTCHAR 002B
ENCODING 43
SWIDTH 582 0
DWIDTH 34 0
BBX 27 27 3 7
BITMAP
00060000
00060000
00060000
00060000
00060000
00060000
00060000
00060000
00060000
00060000
00060000
00060000
FFFFFFE0
FFFFFFE0
00060000
00060000
00060000
00060000
00060000
00060000
00060000
00060000
00060000
00060000
00060000
00060000
00060000
ENDCHAR
STARTCHAR 002C
ENCODING 44
SWIDTH 240 0
DWIDTH 14 0
BBX 4 10 3 -5
BITMAP
F0
F0
F0
F0
F0
30
30
30
70
60
ENDCHAR
STARTCHAR 002D
ENCODING 45
SWIDTH 428 0
DWIDTH 25 0
BBX 18 2 3 17
BITMAP
FFFFC0
FFFFC0
ENDCHAR
STARTCHAR 002E
ENCODING 46
SWIDTH 222 0
DWIDTH 13 0
BBX 3 3 5 0
BITMAP
E0
E0
E0
ENDCHAR
STARTCHAR 002F
ENCODING 47
SWIDTH 360 0
DWIDTH 21 0
BBX 13 42 4 0
BITMAP
0018
0038
0038
0030
0070
0070
0070
0060
00E0
00E0
00E0
00C0
01C0
01C0
0180
0180
0380
0380
0300
0700
0700
0700
0600
0E00
0E00
0E00
0C00
1C00
1C00
1800
1800
3800
3800
3000
7000
7000
7000
6000
E000
E000
E000
C000
ENDCHAR
STARTCHAR 0030
ENCODING 48
SWIDTH 582 0
DWIDTH 34 0
BBX 26 42 4 0
BITMAP
007F0000
01FFE000
07F7F000
0F007C00
1E001E00
38000E00
38000700
70000380
60000380
E0000180
E0000180
E00001C0
E00001C0
E00001C0
E00001C0
E00001C0
E00001C0
E00001C0
E00001C0
E00001C0
E00001C0
E00001C0
E00001C0
E00001C0
E00001C0
E00001C0
E00001C0
E00001C0
E00001C0
E00001C0
E00001C0
E0000180
E0000180
60000380
70000380
30000700
38000E00
1E001E00
0F007C00
07F7F800
01FFE000
007F8000
ENDCHAR
STARTCHAR 0031
ENCODING 49
SWIDTH 360 0
DWIDTH 21 0
BBX 11 42 3 0
BITMAP
00E0
03E0
0FE0
1EE0
7CE0
F0E0
C0E0
80E0
00E0
00E0
00E0
00E0
00E0
00E0
00E0
00E0
00E0
00E0
00E0
00E0
00E0
00E0
00E0
00E0
00E0
00E0
00E0
00E0
00E0
00E0
00E0
00E0
00E0
00E0
00E0
00E0
00E0
00E0
00E0
00E0
00E0
00E0
ENDCHAR
STARTCHAR 0032
ENCODING 50
SWIDTH 548 0
DWIDTH 32 0
BBX 26 42 3 0
BITMAP
003F8000
01FFE000
03FBF800
0F803C00
1E000E00
1C000700
38000380
70000380
700001C0
600001C0
E00000C0
E00000C0
E00000C0
000000C0
000000C0
000000C0
000001C0
000001C0
00000180
00000380
00000700
00000F00
00001E00
00003C00
00007800
0000E000
0001C000
00078000
000F0000
001E0000
003C0000
00780000
00F00000
01C00000
03800000
07000000
1E000000
3C000000
78000000
F0000000
FFFFFFC0
FFFFFFC0
ENDCHAR
STARTCHAR 0033
ENCODING 51
SWIDTH 531 0
DWIDTH 31 0
BBX 26 42 2 0
BITMAP
3FFFFF80
3FFFFF80
00000380
00000700
00001E00
00003C00
00007800
0000F000
0001E000
0003C000
00078000
000F0000
001C0000
00380000
00700000
00E00000
01FFC000
03FFF000
01C0F800
00003C00
00000E00
00000700
00000700
00000380
00000380
00000180
00000180
000001C0
000001C0
000001C0
000001C0
00000180
00000180
E0000380
60000380
70000700
38000F00
3C001E00
1F003C00
07E7F800
03FFE000
007F8000
ENDCHAR
STARTCHAR 0034
ENCODING 52
SWIDTH 582 0
DWIDTH 34 0
BBX 28 42 3 0
BITMAP
00038000
00030000
00070000
00060000
000E0000
000C0000
001C0000
001C0000
00380000
00380000
00700000
00700000
00E00000
00E00000
00C00000
01C00000
01800000
03800E00
03000E00
07000E00
06000E00
0E000E00
0C000E00
1C000E00
18000E00
38000E00
38000E00
70000E00
70000E00
E0000E00
E0000E00
FFFFFFF0
FFFFFFF0
00000E00
00000E00
00000E00
00000E00
00000E00
00000E00
00000E00
00000E00
00000E00
ENDCHAR
STARTCHAR 0035
ENCODING 53
SWIDTH 565 0
DWIDTH 33 0
BBX 27 42 3 0
BITMAP
3FFFFF00
3FFFFF00
38000000
38000000
30000000
30000000
30000000
30000000
30000000
30000000
30000000
30000000
70000000
70000000
70000000
70FFC000
73FFF000
77C07C00
7F001E00
7C000700
78000380
700001C0
100001C0
000000E0
000000E0
00000060
00000060
00000060
00000060
00000060
00000060
400000E0
E00000E0
E00000C0
700001C0
38000380
38000780
1E000F00
0F803E00
07FFF800
01FFF000
007F8000
ENDCHAR
STARTCHAR 0036
ENCODING 54
SWIDTH 617 0
DWIDTH 36 0
BBX 28 42 4 0
BITMAP
003FC000
00FFF000
03FFFC00
07801E00
0E000700
1C000380
380001C0
70000080
70000000
60000000
E0000000
E0000000
E0000000
E0000000
E0000000
E03FC000
E0FFF000
E3FDFC00
E7801E00
EE000700
FC000380
F80001C0
F00000E0
F00000E0
E0000060
E0000070
E0000070
E0000030
E0000030
E0000030
E0000070
E0000070
60000060
700000E0
300000E0
380001C0
1C000380
0E000700
07801E00
03F9FC00
00FFF000
003FC000
ENDCHAR
STARTCHAR 0037
ENCODING 55
SWIDTH 480 0
DWIDTH 28 0
BBX 23 42 2 0
BITMAP
FFFFFE
FFFFFE
FFFFFE
00000E
00000C
00001C
00001C
000038
000038
000030
000070
000060
0000E0
0000E0
0000C0
0001C0
000180
000380
000380
000300
000700
000600
000E00
000E00
000C00
001C00
001800
003800
003800
007000
007000
006000
00E000
00C000
01C000
01C000
018000
038000
030000
070000
070000
060000
ENDCHAR
STARTCHAR 0038
ENCODING 56
SWIDTH 565 0
DWIDTH 33 0
BBX 26 42 3 0
BITMAP
007F8000
01FFF000
07FFF800
0F803C00
1E000E00
1C000700
38000700
38000380
30000380
70000380
70000380
70000380
30000380
30000380
38000300
1C000700
1E000E00
0F003E00
07F3F800
01FFF000
03FFF800
0FC07C00
1E001E00
3C000700
38000380
70000380
700001C0
600001C0
600001C0
E00001C0
E00001C0
600001C0
600001C0
700001C0
70000180
30000380
38000700
1C000F00
0F003E00
07F3FC00
01FFF000
007F8000
ENDCHAR
STARTCHAR 0039
ENCODING 57
SWIDTH 617 0
DWIDTH 36 0
BBX 28 42 4 0
BITMAP
003FC000
00FFF000
03FDFC00
07801E00
0E000700
1C000380
380001C0
300000E0
700000E0
60000060
E0000070
E0000070
E0000030
E0000030
E0000030
E0000070
E0000070
60000070
700000F0
300000F0
380001F0
1C0003B0
0E000730
07801E30
03F9FC30
00FFF030
003FC030
00000030
00000030
00000030
00000070
00000070
00000060
000000E0
100000E0
380001C0
1C000380
0E000780
07801F00
03FDFC00
00FFF800
003FC000
ENDCHAR
STARTCHAR 003A
ENCODING 58
SWIDTH 274 0
DWIDTH 16 0
BBX 4 21 6 5
BITMAP
F0
F0
F0
F0
00
00
00
00
00
00
00
00
00
00
00
00
00
00
F0
F0
F0
ENDCHAR
STARTCHAR 003B
ENCODING 59
SWIDTH 274 0
DWIDTH 16 0
BBX 4 37 6 -5
BITMAP
F0
F0
F0
F0
00
00
00
00
00
00
00
00
00
00
00
00
00
00
00
00
00
00
00
00
00
00
00
F0
F0
F0
F0
F0
30
30
30
60
E0
ENDCHAR
STARTCHAR 003C
ENCODING 60
SWIDTH 600 0
DWIDTH 35 0
BBX 15 27 8 5
BITMAP
0004
000E
001C
0038
0070
00E0
01C0
0380
0700
0E00
1C00
3800
7000
E000
7000
3800
1C00
0E00
0700
0380
01C0
00E0
0070
0038
001C
000E
0004
ENDCHAR
STARTCHAR 003D
ENCODING 61
SWIDTH 754 0
DWIDTH 44 0
BBX 30 12 7 15
BITMAP
FFFFFFFC
FFFFFFFC
00000000
00000000
00000000
00000000
00000000
00000000
00000000
00000000
FFFFFFFC
FFFFFFFC
ENDCHAR
STARTCHAR 003E
ENCODING 62
SWIDTH 600 0
DWIDTH 35 0
BBX 15 27 12 5
BITMAP
4000
E000
7000
3800
1C00
0E00
0700
0380
01C0
00E0
0070
0038
001C
000E
001C
0038
0070
00E0
01C0
0380
0700
0E00
1C00
3800
7000
E000
4000
ENDCHAR
STARTCHAR 003F
ENCODING 63
SWIDTH 497 0
DWIDTH 29 0
BBX 23 42 3 0
BITMAP
00FF00
07FFC0
0FEFF0
3E0078
38003C
70001C
60000E
E0000E
E00006
C00006
C00006
000006
000006
00000E
00000E
00001C
00003C
000078
0000F0
0003E0
000780
000F00
001E00
001C00
003800
003800
003000
003000
003000
003000
003000
000000
000000
000000
000000
000000
000000
000000
003000
003000
003000
003000
ENDCHAR
STARTCHAR 0040
ENCODING 64
SWIDTH 891 0
DWIDTH 52 0
BBX 43 43 5 -6
BITMAP
0001FFF80000
000FFFFF0000
003F801FC000
00FC0003E000
01F00000F000
03C000003800
078000001C00
0F0000000E00
1E0000000700
1C0000000700
380000000380
380000000380
7000000001C0
7000000001C0
60003F0001C0
E000FFF800C0
E001F7F800E0
E00380F800E0
C007007800E0
C007003800E0
C006003800E0
C006003800C0
C006003800C0
C006003800C0
E007003801C0
E00700780180
E00380FC0380
6001FFFC0700
7000FFCFDF00
70003F07FE00
38000003F800
380000000000
1C0000000000
1E0000000000
0F0000000000
078000000000
03C000000000
01E000008000
00F800018000
007E000FC000
001FFBFF0000
0007FFFC0000
0000FFC00000
ENDCHAR
STARTCHAR 0041
ENCODING 65
SWIDTH 617 0
DWIDTH 36 0
BBX 33 42 1 0
BITMAP
0001C00000
0001E00000
0001E00000
0003E00000
0003700000
0007700000
0007300000
0006380000
000E180000
000E1C0000
000C1C0000
001C0C0000
00180E0000
00180E0000
0038060000
0030070000
0070070000
0070030000
0060038000
00E0018000
00E001C000
00C001C000
01C000C000
018000E000
018000E000
0380006000
0300007000
0700007000
0700003000
07FFFFF800
0FFFFFF800
0E00001C00
0C00001C00
1C00000C00
1800000E00
1800000E00
3800000600
3000000700
7000000700
7000000300
6000000380
E000000180
ENDCHAR
STARTCHAR 0042
ENCODING 66
SWIDTH 600 0
DWIDTH 35 0
BBX 29 42 4 0
BITMAP
FFFFF000
FFFFFC00
E0007E00
E0000780
E0000380
E00001C0
E00000E0
E00000E0
E00000E0
E0000060
E0000060
E0000060
E00000E0
E00000E0
E00001C0
E00001C0
E0000380
E0000F00
E0007E00
FFFFFC00
FFFFFF00
E0000F80
E00003C0
E00001E0
E00000F0
E0000070
E0000038
E0000038
E0000038
E0000018
E0000018
E0000018
E0000018
E0000038
E0000038
E0000070
E00000F0
E00001E0
E00007C0
E0007F80
FFFFFF00
FFFFF800
ENDCHAR
STARTCHAR 0043
ENCODING 67
SWIDTH 702 0
DWIDTH 41 0
BBX 36 42 2 0
BITMAP
0003FE0000
003FFFE000
00FFDFF800
01F0007C00
03C0001E00
0780000F00
0F00000380
1E000001C0
1C000001C0
38000000E0
3800000060
7000000070
7000000070
6000000030
E000000000
E000000000
E000000000
E000000000
C000000000
C000000000
C000000000
C000000000
C000000000
C000000000
E000000000
E000000000
E000000000
E000000000
6000000030
7000000070
7000000070
3800000060
38000000E0
1C000001C0
1C000001C0
0E00000380
0780000700
03C0001E00
01F0007C00
00FFDFF800
003FFFE000
0003FF0000
ENDCHAR
STARTCHAR 0044
ENCODING 68
SWIDTH 651 0
DWIDTH 38 0
BBX 32 42 4 0
BITMAP
FFFFE000
FFFFFC00
E007FF00
E0000F80
E00003C0
E00000E0
E0000070
E0000078
E0000038
E000001C
E000001C
E000000C
E000000E
E000000E
E000000E
E0000006
E0000006
E0000007
E0000007
E0000007
E0000007
E0000007
E0000007
E0000007
E0000006
E0000006
E0000006
E000000E
E000000E
E000000E
E000000C
E000001C
E000001C
E0000038
E0000038
E0000070
E00000E0
E00003C0
E0000F80
E007FF00
FFFFFC00
FFFFE000
ENDCHAR
STARTCHAR 0045
ENCODING 69
SWIDTH 565 0
DWIDTH 33 0
BBX 26 42 4 0
BITMAP
FFFFFFC0
FFFFFFC0
E0000000
E0000000
E0000000
E0000000
E0000000
E0000000
E0000000
E0000000
E0000000
E0000000
E0000000
E0000000
E0000000
E0000000
E0000000
E0000000
E0000000
E0000000
FFFFFC00
FFFFFC00
E0000000
E0000000
E0000000
E0000000
E0000000
E0000000
E0000000
E0000000
E0000000
E0000000
E0000000
E0000000
E0000000
E0000000
E0000000
E0000000
E0000000
E0000000
FFFFFFC0
FFFFFFC0
ENDCHAR
STARTCHAR 0046
ENCODING 70
SWIDTH 497 0
DWIDTH 29 0
BBX 23 42 4 0
BITMAP
FFFFFE
FFFFFE
E00000
E00000
E00000
E00000
E00000
E00000
E00000
E00000
E00000
E00000
E00000
E00000
E00000
E00000
E00000
E00000
E00000
E00000
FFFFF0
FFFFF0
E00000
E00000
E00000
E00000
E00000
E00000
E00000
E00000
E00000
E00000
E00000
E00000
E00000
E00000
E00000
E00000
E00000
E00000
E00000
E00000
ENDCHAR
STARTCHAR 0047
ENCODING 71
SWIDTH 685 0
DWIDTH 40 0
BBX 36 42 2 0
BITMAP
0003FE0000
003FFFC000
00FFDFF000
01F0007C00
03C0001E00
0780000F00
0F00000700
1E00000380
1C000001C0
38000001C0
3800000000
7000000000
7000000000
6000000000
E000000000
E000000000
E000000000
E000000000
C000000000
C000000000
C000000000
C00003FFF0
C00003FFF0
C000000030
E000000030
E000000030
E000000070
E000000070
6000000070
7000000070
7000000060
38000000E0
38000000E0
1C000001C0
1C000001C0
0E00000380
0780000700
03C0001E00
01F0007C00
00FFDFF800
003FFFE000
0003FF0000
ENDCHAR
STARTCHAR 0048
ENCODING 72
SWIDTH 668 0
DWIDTH 39 0
BBX 30 42 4 0
BITMAP
E000000C
E000000C
E000000C
E000000C
E000000C
E000000C
E000000C
E000000C
E000000C
E000000C
E000000C
E000000C
E000000C
E000000C
E000000C
E000000C
E000000C
E000000C
E000000C
E000000C
FFFFFFFC
FFFFFFFC
E000000C
E000000C
E000000C
E000000C
E000000C
E000000C
E000000C
E000000C
E000000C
E000000C
E000000C
E000000C
E000000C
E000000C
E000000C
E000000C
E000000C
E000000C
E000000C
E000000C
ENDCHAR
STARTCHAR 0049
ENCODING 73
SWIDTH 205 0
DWIDTH 12 0
BBX 2 42 5 0
BITMAP
C0
C0
C0
C0
C0
C0
C0
C0
C0
C0
C0
C0
C0
C0
C0
C0
C0
C0
C0
C0
C0
C0
C0
C0
C0
C0
C0
C0
C0
C0
C0
C0
C0
C0
C0
C0
C0
C0
C0
C0
C0
C0
ENDCHAR
STARTCHAR 004A
ENCODING 74
SWIDTH 445 0
DWIDTH 26 0
BBX 21 42 0 0
BITMAP
000038
000038
000038
000038
000038
000038
000038
000038
000038
000038
000038
000038
000038
000038
000038
000038
000038
000038
000038
000038
000038
000038
000038
000038
000038
000038
000038
000038
000038
000038
000038
000038
000038
200038
E00038
E00030
700070
3800E0
3C01E0
1FDFC0
07FF00
01FC00
ENDCHAR
STARTCHAR 004B
ENCODING 75
SWIDTH 565 0
DWIDTH 33 0
BBX 28 42 4 0
BITMAP
E00001C0
E0000380
E0000700
E0000E00
E0001C00
E0003800
E0007000
E000E000
E003C000
E0078000
E00F0000
E01E0000
E03C0000
E0780000
E0F00000
E1E00000
E3C00000
E7800000
EF000000
FE000000
FE000000
EF000000
E7800000
E3C00000
E1E00000
E0F00000
E0780000
E03C0000
E01E0000
E00F0000
E0078000
E003C000
E001E000
E000F000
E0007800
E0003C00
E0001E00
E0000F00
E0000380
E00001C0
E00000E0
E0000070
ENDCHAR
STARTCHAR 004C
ENCODING 76
SWIDTH 497 0
DWIDTH 29 0
BBX 23 42 5 0
BITMAP
C00000
C00000
C00000
C00000
C00000
C00000
C00000
C00000
C00000
C00000
C00000
C00000
C00000
C00000
C00000
C00000
C00000
C00000
C00000
C00000
C00000
C00000
C00000
C00000
C00000
C00000
C00000
C00000
C00000
C00000
C00000
C00000
C00000
C00000
C00000
C00000
C00000
C00000
C00000
C00000
FFFFFE
FFFFFE
ENDCHAR
STARTCHAR 004D
ENCODING 77
SWIDTH 822 0
DWIDTH 48 0
BBX 40 42 4 0
BITMAP
E000000003
E000000007
F000000007
F00000000F
F00000000F
F80000001F
F80000001F
FC0000001B
EC0000003B
EE00000033
E600000073
E700000063
E7000000E3
E3800000C3
E3800001C3
E1C00001C3
E1C0000383
E0C0000383
E0E0000303
E060000703
E070000603
E030000E03
E038000C03
E038001C03
E01C001C03
E01C003803
E00E003803
E00E007003
E006007003
E007006003
E00300E003
E00380C003
E00181C003
E001C18003
E001C38003
E000E38003
E000E70003
E000770003
E0007E0003
E0003E0003
E0003C0003
E0001C0003
ENDCHAR
STARTCHAR 004E
ENCODING 78
SWIDTH 668 0
DWIDTH 39 0
BBX 31 42 4 0
BITMAP
E000000E
F000000E
F000000E
F800000E
FC00000E
FC00000E
EE00000E
E700000E
E700000E
E380000E
E1C0000E
E1C0000E
E0E0000E
E070000E
E070000E
E038000E
E01C000E
E01C000E
E00E000E
E007000E
E007000E
E003800E
E001C00E
E000C00E
E000E00E
E000700E
E000380E
E000380E
E0001C0E
E0000E0E
E0000E0E
E000070E
E000038E
E000038E
E00001CE
E00000EE
E00000EE
E000007E
E000003E
E000003E
E000001E
E000000E
ENDCHAR
STARTCHAR 004F
ENCODING 79
SWIDTH 702 0
DWIDTH 41 0
BBX 37 42 2 0
BITMAP
0003FE0000
003FFFE000
00FFDFF800
01F0007C00
03C0001E00
0780000F00
0F00000380
1E000001C0
1C000001C0
38000000E0
3800000060
7000000070
7000000070
6000000030
E000000038
E000000038
E000000038
E000000018
C000000018
C000000018
C000000018
C000000018
C000000018
C000000018
E000000018
E000000038
E000000038
E000000038
6000000038
7000000070
7000000070
3800000060
38000000E0
1C000001E0
1C000001C0
0E00000380
0780000F00
03C0001E00
01F0007C00
00FFDFF800
003FFFE000
0003FE0000
ENDCHAR
STARTCHAR 0050
ENCODING 80
SWIDTH 582 0
DWIDTH 34 0
BBX 28 42 4 0
BITMAP
FFFFE000
FFFFFC00
E000FE00
E0000F80
E00003C0
E00001C0
E00000E0
E00000E0
E0000070
E0000070
E0000070
E0000070
E0000070
E0000070
E0000070
E0000070
E0000070
E00000E0
E00000E0
E00001C0
E00003C0
E0000F80
E000FF00
FFFFFC00
FFFFF000
E0000000
E0000000
E0000000
E0000000
E0000000
E0000000
E0000000
E0000000
E0000000
E0000000
E0000000
E0000000
E0000000
E0000000
E0000000
E0000000
E0000000
ENDCHAR
STARTCHAR 0051
ENCODING 81
SWIDTH 702 0
DWIDTH 41 0
BBX 37 42 2 0
BITMAP
0003FE0000
003FFFE000
00FFDFF800
01F0007C00
03C0001E00
0780000F00
0F00000380
1E000001C0
1C000001C0
38000000E0
3800000060
7000000070
7000000070
6000000030
E000000038
E000000038
E000000038
E000000018
C000000018
C000000018
C000000018
C000000018
C000000018
C000000018
E000000018
E000000038
E000000038
E000000038
6000000038
7000000070
7000002070
3800007060
38000078E0
1C00003DC0
1C00001FC0
0E00000F80
0780000F80
03C0001FC0
01F0007CE0
00FFDFF870
003FFFE038
0003FE0010
ENDCHAR
STARTCHAR 0052
ENCODING 82
SWIDTH 617 0
DWIDTH 36 0
BBX 29 42 4 0
BITMAP
FFFFE000
FFFFFC00
E000FE00
E0000F80
E00003C0
E00001C0
E00000E0
E00000E0
E0000070
E0000070
E0000070
E0000070
E0000070
E0000070
E0000070
E0000070
E0000070
E00000E0
E00000E0
E00001C0
E00003C0
E0000F80
E000FF00
FFFFFC00
FFFFF800
E0003800
E0001C00
E0001C00
E0000E00
E0000E00
E0000700
E0000700
E0000380
E0000380
E00001C0
E00001C0
E00000E0
E00000E0
E0000070
E0000070
E0000038
E0000038
ENDCHAR
STARTCHAR 0053
ENCODING 83
SWIDTH 582 0
DWIDTH 34 0
BBX 31 42 2 0
BITMAP
001FE000
00FFFC00
03FCFF00
078007C0
0F0001E0
1C0000F0
38000070
38000038
30000018
7000001C
7000000C
7000000C
30000000
38000000
38000000
1E000000
0F000000
07E00000
01FC0000
007FC000
000FF800
0000FF00
00001FC0
000003E0
00000070
00000038
0000001C
0000000C
0000000C
0000000E
0000000E
C000000E
E000000C
6000000C
7000001C
38000038
3C000038
1F0000F0
07C003E0
03FE7FC0
00FFFF00
001FF800
ENDCHAR
STARTCHAR 0054
ENCODING 84
SWIDTH 582 0
DWIDTH 34 0
BBX 33 42 1 0
BITMAP
FFFFFFFF80
FFFFFFFF80
0001800000
0001800000
0001800000
0001800000
0001800000
0001800000
0001800000
0001800000
0001800000
0001800000
0001800000
0001800000
0001800000
0001800000
0001800000
0001800000
0001800000
0001800000
0001800000
0001800000
0001800000
0001800000
0001800000
0001800000
0001800000
0001800000
0001800000
0001800000
0001800000
0001800000
0001800000
0001800000
0001800000
0001800000
0001800000
0001800000
0001800000
0001800000
0001800000
0001800000
ENDCHAR
STARTCHAR 0055
ENCODING 85
SWIDTH 685 0
DWIDTH 40 0
BBX 32 42 4 0
BITMAP
E0000003
E0000003
E0000003
E0000003
E0000003
E0000003
E0000003
E0000003
E0000003
E0000003
E0000003
E0000003
E0000003
E0000003
E0000003
E0000003
E0000003
E0000003
E0000003
E0000003
E0000003
E0000003
E0000003
E0000003
E0000003
E0000003
E0000003
E0000003
E0000007
E0000007
E0000007
70000006
7000000E
3800000E
3800001C
1C00003C
1E000078
0F8000F0
07C003E0
01FC3F80
007FFF00
000FF800
ENDCHAR
STARTCHAR 0056
ENCODING 86
SWIDTH 582 0
DWIDTH 34 0
BBX 33 42 0 0
BITMAP
E000000180
6000000380
7000000380
3000000300
3800000700
3800000600
1800000E00
1C00000E00
1C00000C00
0C00001C00
0E00001C00
0E00001800
0600003800
0700003800
0300003000
0380007000
0380006000
018000E000
01C000E000
01C000C000
00C001C000
00E001C000
00E0018000
0060038000
0070038000
0030030000
0038070000
0038060000
00180E0000
001C0E0000
001C0C0000
000C1C0000
000E1C0000
000E180000
0006380000
0007380000
0003300000
0003F00000
0003E00000
0001E00000
0001E00000
0001C00000
ENDCHAR
STARTCHAR 0057
ENCODING 87
SWIDTH 908 0
DWIDTH 53 0
BBX 51 42 1 0
BITMAP
E00000E00000E0
600000E00000C0
600001E00000C0
700001F00001C0
700001F00001C0
300001B0000180
380003B8000380
380003B8000380
18000318000300
1800071C000300
1C00071C000700
1C00061C000700
0C00060C000600
0E000E0E000E00
0E000E0E000E00
06000C06000C00
06001C07000C00
07001C07001C00
07001807001C00
03001803001800
03803803803800
03803803803800
01803001803000
01807001C03000
01C07001C07000
01C06001C07000
00C06000C06000
00E0E000E0E000
00E0E000E0E000
0060C00060C000
0061C00070C000
0071C00071C000
0071800031C000
00318000318000
003B80003B8000
003B80003B8000
001B00001B0000
001F00001F0000
001F00001F0000
001E00000F0000
000E00000E0000
000E00000E0000
ENDCHAR
STARTCHAR 0058
ENCODING 88
SWIDTH 565 0
DWIDTH 33 0
BBX 31 42 1 0
BITMAP
E000000E
7000000C
3800001C
38000038
1C000070
0E000070
0E0000E0
070001C0
038001C0
01800380
01C00700
00E00600
00600E00
00701C00
00381800
00183800
001C7000
000E6000
0007E000
0007C000
00038000
0003C000
0007C000
000EE000
000C7000
001C3000
00383800
00301C00
00700C00
00E00E00
00C00700
01C00380
03800380
070001C0
070000E0
0E0000E0
1C000070
1C000038
38000038
7000001C
7000000E
E0000006
ENDCHAR
STARTCHAR 0059
ENCODING 89
SWIDTH 514 0
DWIDTH 30 0
BBX 30 42 0 0
BITMAP
E000001C
70000018
70000038
38000070
18000070
1C0000E0
0E0000E0
0E0001C0
07000180
07000380
03800700
01800700
01C00E00
00E00E00
00E01C00
00701800
00703800
00387000
001C7000
001CE000
000EC000
000FC000
00078000
00038000
00030000
00030000
00030000
00030000
00030000
00030000
00030000
00030000
00030000
00030000
00030000
00030000
00030000
00030000
00030000
00030000
00030000
00030000
ENDCHAR
STARTCHAR 005A
ENCODING 90
SWIDTH 582 0
DWIDTH 34 0
BBX 28 42 3 0
BITMAP
FFFFFFF0
FFFFFFF0
000000E0
000000C0
000001C0
00000380
00000380
00000700
00000600
00000E00
00001C00
00001800
00003800
00007000
00006000
0000E000
0001C000
0001C000
00038000
00030000
00070000
000E0000
000C0000
001C0000
00380000
00380000
00700000
00600000
00E00000
01C00000
01800000
03800000
07000000
07000000
0E000000
1C000000
1C000000
38000000
30000000
70000000
FFFFFFF0
FFFFFFF0
ENDCHAR
STARTCHAR 005B
ENCODING 91
SWIDTH 394 0
DWIDTH 23 0
BBX 10 64 8 -13
BITMAP
FFC0
FFC0
E000
E000
E000
E000
E000
E000
E000
E000
E000
E000
E000
E000
E000
E000
E000
E000
E000
E000
E000
E000
E000
E000
E000
E000
E000
E000
E000
E000
E000
E000
E000
E000
E000
E000
E000
E000
E000
E000
E000
E000
E000
E000
E000
E000
E000
E000
E000
E000
E000
E000
E000
E000
E000
E000
E000
E000
E000
E000
E000
E000
FFC0
FFC0
ENDCHAR
STARTCHAR 005C
ENCODING 92
SWIDTH 360 0
DWIDTH 21 0
BBX 13 42 4 0
BITMAP
C000
E000
E000
E000
6000
7000
7000
7000
3000
3800
3800
1800
1800
1C00
1C00
0C00
0E00
0E00
0E00
0600
0700
0700
0700
0300
0380
0380
0180
0180
01C0
01C0
00C0
00E0
00E0
00E0
0060
0070
0070
0070
0030
0038
0038
0018
ENDCHAR
STARTCHAR 005D
ENCODING 93
SWIDTH 394 0
DWIDTH 23 0
BBX 10 64 5 -13
BITMAP
FFC0
FFC0
01C0
01C0
01C0
01C0
01C0
01C0
01C0
01C0
01C0
01C0
01C0
01C0
01C0
01C0
01C0
01C0
01C0
01C0
01C0
01C0
01C0
01C0
01C0
01C0
01C0
01C0
01C0
01C0
01C0
01C0
01C0
01C0
01C0
01C0
01C0
01C0
01C0
01C0
01C0
01C0
01C0
01C0
01C0
01C0
01C0
01C0
01C0
01C0
01C0
01C0
01C0
01C0
01C0
01C0
01C0
01C0
01C0
01C0
01C0
01C0
FFC0
FFC0
ENDCHAR
STARTCHAR 005E
ENCODING 94
SWIDTH 668 0
DWIDTH 39 0
BBX 27 15 6 28
BITMAP
00040000
000E0000
001F0000
003B8000
0071C000
00E0E000
01C07000
03803800
07001C00
0E000E00
1C000700
38000380
700001C0
E00000E0
40000040
ENDCHAR
STARTCHAR 005F
ENCODING 95
SWIDTH 668 0
DWIDTH 39 0
BBX 38 2 0 -5
BITMAP
FFFFFFFFFC
FFFFFFFFFC
ENDCHAR
STARTCHAR 0060
ENCODING 96
SWIDTH 462 0
DWIDTH 27 0
BBX 5 8 11 47
BITMAP
C0
C0
E0
60
70
70
30
38
ENDCHAR
STARTCHAR 0061
ENCODING 97
SWIDTH 548 0
DWIDTH 32 0
BBX 26 32 2 0
BITMAP
003FC000
01FFF800
07FDFC00
0F800F00
1E000700
1C000380
38000180
380001C0
300001C0
000001C0
000000C0
000000C0
000000C0
0000FFC0
007FFFC0
03FFC0C0
0FE000C0
1E0000C0
380000C0
700001C0
700001C0
E00001C0
E00001C0
E00003C0
E00003C0
600007C0
70000EC0
38001CC0
3C0078C0
1FCFF0C0
07FFC0C0
01FF0000
ENDCHAR
STARTCHAR 0062
ENCODING 98
SWIDTH 582 0
DWIDTH 34 0
BBX 27 42 4 0
BITMAP
E0000000
E0000000
E0000000
E0000000
E0000000
E0000000
E0000000
E0000000
E0000000
E0000000
E03FC000
E0FFF000
E3FBFC00
E7803E00
EE000F00
FC000700
F8000380
F00001C0
F00001C0
E00000C0
E00000E0
E00000E0
E00000E0
C00000E0
C0000060
C0000060
C0000060
C0000060
C00000E0
E00000E0
E00000E0
E00000E0
E00000C0
F00001C0
F00001C0
F8000380
DC000700
CE000F00
C7803E00
C3FBFC00
C1FFF000
C03F8000
ENDCHAR
STARTCHAR 0063
ENCODING 99
SWIDTH 531 0
DWIDTH 31 0
BBX 27 32 2 0
BITMAP
003FE000
00FFF800
03FDFE00
07800F00
0F000380
1E0001C0
1C0000E0
380000E0
30000000
70000000
70000000
60000000
60000000
E0000000
E0000000
E0000000
E0000000
E0000000
E0000000
60000000
60000000
70000000
70000000
30000000
380000E0
1C0000E0
1E0001C0
0F000380
07800F00
03FDFE00
00FFFC00
001FE000
ENDCHAR
STARTCHAR 0064
ENCODING 100
SWIDTH 582 0
DWIDTH 34 0
BBX 28 42 2 0
BITMAP
00000070
00000070
00000070
00000070
00000070
00000070
00000070
00000070
00000070
00000070
003F8070
01FFF070
03FFF870
07801E70
0E000670
1C000370
1C0001F0
380001F0
300000F0
700000F0
700000F0
60000070
60000070
E0000070
E0000070
E0000070
E0000070
E0000070
E0000070
60000070
60000070
700000F0
700000F0
300000F0
380001F0
3C0001F0
1C000370
0F000770
07801E70
03F9FC70
01FFF070
003FC070
ENDCHAR
STARTCHAR 0065
ENCODING 101
SWIDTH 565 0
DWIDTH 33 0
BBX 29 32 2 0
BITMAP
001FE000
00FFF800
03FDFE00
07C00F00
0F000380
1E0001C0
1C0000E0
380000E0
30000070
70000070
70000030
60000038
60000038
E0000038
E0000038
FFFFFFF8
FFFFFFF8
E0000000
E0000000
60000000
60000000
70000000
70000000
30000020
38000070
1C0000E0
1C0001E0
0F0003C0
07800F80
03FDFE00
00FFFC00
001FE000
ENDCHAR
STARTCHAR 0066
ENCODING 102
SWIDTH 342 0
DWIDTH 20 0
BBX 17 42 2 0
BITMAP
003F80
00FF80
01E000
038000
030000
030000
070000
070000
070000
070000
FFFF80
FFFF80
070000
070000
070000
070000
070000
070000
070000
070000
070000
070000
070000
070000
070000
070000
070000
070000
070000
070000
070000
070000
070000
070000
070000
070000
070000
070000
070000
070000
070000
070000
ENDCHAR
STARTCHAR 0067
ENCODING 103
SWIDTH 582 0
DWIDTH 34 0
BBX 28 46 2 -14
BITMAP
003F8070
01FFF070
03FFFC70
07801E70
0E000770
1C0003F0
1C0001F0
380001F0
300000F0
700000F0
700000F0
60000070
60000070
E0000070
E0000070
E0000070
E0000070
E0000070
E0000070
60000070
60000070
700000F0
700000F0
300000F0
380001F0
1C0001F0
1C000370
0F000770
07801E70
03F9FC60
00FFF060
003FC060
00000060
00000060
00000060
000000E0
000000E0
000000E0
300001C0
380001C0
1C0003C0
1E000780
0F800F00
03FFFE00
01FFFC00
003FE000
ENDCHAR
STARTCHAR 0068
ENCODING 104
SWIDTH 565 0
DWIDTH 33 0
BBX 26 42 4 0
BITMAP
C0000000
C0000000
C0000000
C0000000
C0000000
C0000000
C0000000
C0000000
C0000000
C0000000
C07F8000
C1FFE000
C7F3F800
CF003C00
DE000E00
F8000700
F8000700
F0000380
F0000380
E0000180
E0000180
E00001C0
E00001C0
E00001C0
E00001C0
E00001C0
E00001C0
E00001C0
E00001C0
E00001C0
E00001C0
E00001C0
E00001C0
E00001C0
E00001C0
E00001C0
E00001C0
E00001C0
E00001C0
E00001C0
E00001C0
E00001C0
ENDCHAR
STARTCHAR 0069
ENCODING 105
SWIDTH 205 0
DWIDTH 12 0
BBX 2 42 5 0
BITMAP
C0
C0
C0
C0
00
00
00
00
00
00
C0
C0
C0
C0
C0
C0
C0
C0
C0
C0
C0
C0
C0
C0
C0
C0
C0
C0
C0
C0
C0
C0
C0
C0
C0
C0
C0
C0
C0
C0
C0
C0
ENDCHAR
STARTCHAR 006A
ENCODING 106
SWIDTH 222 0
DWIDTH 13 0
BBX 9 56 -1 -14
BITMAP
0180
0180
0180
0180
0000
0000
0000
0000
0000
0000
0180
0180
0180
0180
0180
0180
0180
0180
0180
0180
0180
0180
0180
0180
0180
0180
0180
0180
0180
0180
0180
0180
0180
0180
0180
0180
0180
0180
0180
0180
0180
0180
0180
0180
0180
0180
0180
0180
0180
0180
0180
0380
0380
FF00
FE00
FC00
ENDCHAR
STARTCHAR 006B
ENCODING 107
SWIDTH 462 0
DWIDTH 27 0
BBX 24 42 4 0
BITMAP
E00000
E00000
E00000
E00000
E00000
E00000
E00000
E00000
E00000
E00000
E00038
E00070
E000E0
E001C0
E00380
E00700
E00E00
E01C00
E03800
E07000
E0E000
E1C000
E78000
EF0000
FE0000
FC0000
FC0000
EE0000
E70000
E3C000
E1E000
E0F000
E07800
E03C00
E00F00
E00780
E003C0
E001E0
E000F0
E0007C
E0001E
E0000F
ENDCHAR
STARTCHAR 006C
ENCODING 108
SWIDTH 205 0
DWIDTH 12 0
BBX 2 42 5 0
BITMAP
C0
C0
C0
C0
C0
C0
C0
C0
C0
C0
C0
C0
C0
C0
C0
C0
C0
C0
C0
C0
C0
C0
C0
C0
C0
C0
C0
C0
C0
C0
C0
C0
C0
C0
C0
C0
C0
C0
C0
C0
C0
C0
ENDCHAR
STARTCHAR 006D
ENCODING 109
SWIDTH 805 0
DWIDTH 47 0
BBX 40 32 4 0
BITMAP
C0FC003F80
C7FF80FFE0
CF87C1F0F8
DC01E3803C
F800F7001C
F0007E000E
E0003C0006
E0003C0007
E0001C0007
E000180007
E000180007
E000180003
E000180003
E000180003
E000180003
E000180003
E000180003
E000180007
E000180007
E000180007
E000180007
E000180007
E000180007
E000180007
E000180007
E000180007
E000180007
E000180007
E000180007
E000180007
E000180007
E000180007
ENDCHAR
STARTCHAR 006E
ENCODING 110
SWIDTH 565 0
DWIDTH 33 0
BBX 26 32 4 0
BITMAP
C07F8000
C1FFE000
C7F3F800
CF003C00
DE000E00
F8000700
F8000700
F0000380
F0000380
E0000180
E0000180
E00001C0
E00001C0
E00001C0
E00001C0
E00001C0
E00001C0
E00001C0
E00001C0
E00001C0
E00001C0
E00001C0
E00001C0
E00001C0
E00001C0
E00001C0
E00001C0
E00001C0
E00001C0
E00001C0
E00001C0
E00001C0
ENDCHAR
STARTCHAR 006F
ENCODING 111
SWIDTH 565 0
DWIDTH 33 0
BBX 29 32 2 0
BITMAP
001FE000
00FFFC00
03FDFE00
07800F80
0F000380
1E0001C0
1C0000E0
380000E0
30000070
70000070
70000030
60000038
60000038
E0000038
E0000038
E0000038
E0000038
E0000038
E0000038
60000038
60000038
70000030
70000070
30000070
380000E0
1C0000E0
1E0001C0
0F000380
07800F80
03FDFE00
00FFFC00
003FE000
ENDCHAR
STARTCHAR 0070
ENCODING 112
SWIDTH 582 0
DWIDTH 34 0
BBX 27 45 4 -13
BITMAP
C03FC000
C0FFF000
C3FBFC00
C7803E00
CE000F00
DC000700
D8000380
F00001C0
F00001C0
E00000C0
E00000E0
E00000E0
E00000E0
C00000E0
C0000060
C0000060
C0000060
C0000060
C00000E0
E00000E0
E00000E0
E00000E0
E00000C0
F00001C0
F00001C0
F8000380
FC000700
EE000F00
E7803E00
E3FBFC00
E0FFF000
E03F8000
E0000000
E0000000
E0000000
E0000000
E0000000
E0000000
E0000000
E0000000
E0000000
E0000000
E0000000
E0000000
E0000000
ENDCHAR
STARTCHAR 0071
ENCODING 113
SWIDTH 582 0
DWIDTH 34 0
BBX 28 45 2 -13
BITMAP
003F8070
01FFF070
03FFFC70
07801E70
0E000770
1C0003F0
1C0001F0
380001F0
300000F0
700000F0
700000F0
60000070
60000070
E0000070
E0000070
E0000070
E0000070
E0000070
E0000070
60000070
60000070
700000F0
700000F0
300000F0
380001F0
1C0001F0
1C000370
0F000770
07801E70
03F9FC70
00FFF070
003FC070
00000070
00000070
00000070
00000070
00000070
00000070
00000070
00000070
00000070
00000070
00000070
00000070
00000070
ENDCHAR
STARTCHAR 0072
ENCODING 114
SWIDTH 342 0
DWIDTH 20 0
BBX 14 32 4 1
BITMAP
C0FC
C3FC
C7C4
CE00
DC00
F800
F000
F000
E000
E000
E000
E000
E000
E000
E000
E000
E000
E000
E000
E000
E000
E000
E000
E000
E000
E000
E000
E000
E000
E000
E000
E000
ENDCHAR
STARTCHAR 0073
ENCODING 115
SWIDTH 514 0
DWIDTH 30 0
BBX 26 32 2 0
BITMAP
007F8000
03FFF000
0FF7FC00
1E003E00
3C000F00
38000780
70000380
70000180
700001C0
70000000
38000000
3C000000
1F000000
0FE00000
01FE0000
003FC000
0007F800
0000FE00
00001F00
00000780
00000380
00000180
000001C0
200001C0
E0000180
70000380
78000380
3C000700
1F001F00
0FFBFE00
03FFF800
007FC000
ENDCHAR
STARTCHAR 0074
ENCODING 116
SWIDTH 377 0
DWIDTH 22 0
BBX 19 41 1 -1
BITMAP
018000
018000
018000
018000
018000
018000
018000
018000
018000
FFFFE0
FFFFE0
018000
018000
018000
018000
018000
018000
018000
018000
018000
018000
018000
018000
018000
018000
018000
018000
018000
018000
018000
018000
018000
018000
018000
01C000
01C000
00E000
00E000
007C60
003FE0
000FE0
ENDCHAR
STARTCHAR 0075
ENCODING 117
SWIDTH 565 0
DWIDTH 33 0
BBX 26 32 3 0
BITMAP
E00000C0
E00000C0
E00000C0
E00000C0
E00000C0
E00000C0
E00000C0
E00000C0
E00000C0
E00000C0
E00000C0
E00000C0
E00000C0
E00000C0
E00000C0
E00000C0
E00000C0
E00000C0
E00000C0
600000C0
600000C0
600001C0
700001C0
700001C0
300003C0
380003C0
1C0007C0
1E000EC0
0F003CC0
07F3F8C0
01FFF0C0
007F80C0
ENDCHAR
STARTCHAR 0076
ENCODING 118
SWIDTH 480 0
DWIDTH 28 0
BBX 26 32 1 0
BITMAP
E00001C0
60000180
70000380
70000300
30000700
38000700
38000600
18000E00
1C000E00
0C000C00
0E001C00
0E001C00
06001800
07003800
07003800
03003000
03807000
03806000
0180E000
01C0E000
01C0C000
00C1C000
00E1C000
00618000
00738000
00738000
00330000
003F0000
003F0000
001E0000
001E0000
001C0000
ENDCHAR
STARTCHAR 0077
ENCODING 119
SWIDTH 737 0
DWIDTH 43 0
BBX 41 32 1 0
BITMAP
E0001C000180
60001C000380
60001E000300
70003E000300
30003E000700
300037000700
380077000600
380073000E00
180063800E00
1C0063800C00
1C00E1800C00
0C00E1801C00
0C00C1C01800
0E01C1C01800
0601C0C03800
060180E03800
070380E03000
070380607000
030300707000
038300706000
038700306000
01870030E000
01860038C000
01CE0038C000
00CE0019C000
00CC001DC000
00FC001D8000
00FC000F8000
0078000F8000
0078000F0000
007800070000
003800070000
ENDCHAR
STARTCHAR 0078
ENCODING 120
SWIDTH 514 0
DWIDTH 30 0
BBX 28 32 1 0
BITMAP
E00000E0
700000E0
380001C0
1C000380
1C000700
0E000E00
07000E00
03801C00
01C03800
01C07000
00E06000
0070E000
0039C000
001B8000
001F0000
000F0000
000F0000
001F8000
003B8000
0071C000
0070E000
00E07000
01C03800
03803800
03801C00
07000E00
0E000700
1C000780
38000380
380001C0
700000E0
E0000070
ENDCHAR
STARTCHAR 0079
ENCODING 121
SWIDTH 514 0
DWIDTH 30 0
BBX 27 46 1 -14
BITMAP
E00000E0
600000E0
700000C0
300001C0
38000180
38000380
18000380
1C000300
0C000700
0E000700
0E000600
07000E00
07000E00
03000C00
03801C00
03801800
01C03800
01C03800
00C03000
00E07000
00E07000
00706000
0070E000
0030E000
0038C000
0019C000
001D8000
001F8000
000F8000
000F0000
00070000
00070000
00060000
000E0000
000E0000
000C0000
001C0000
00180000
00380000
00380000
00300000
00700000
00700000
00600000
00E00000
00E00000
ENDCHAR
STARTCHAR 007A
ENCODING 122
SWIDTH 531 0
DWIDTH 31 0
BBX 27 32 1 0
BITMAP
3FFFFFE0
3FFFFFE0
3FFFFFC0
00000380
00000780
00000700
00000E00
00001C00
00003800
00007800
00007000
0000E000
0001C000
00038000
00078000
00070000
000E0000
001C0000
00380000
00780000
00700000
00E00000
01C00000
03800000
07800000
07000000
0E000000
1C000000
38000000
7FFFFFC0
7FFFFFC0
FFFFFFC0
ENDCHAR
STARTCHAR 007B
ENCODING 123
SWIDTH 394 0
DWIDTH 23 0
BBX 13 64 8 -13
BITMAP
03F8
07F8
0F00
0E00
1C00
1C00
1C00
1C00
1C00
1C00
1C00
1C00
1C00
1C00
1C00
1C00
1C00
1C00
1C00
1C00
1C00
1C00
1C00
1C00
1C00
1C00
1C00
1C00
3800
3800
7000
E000
E000
7000
3800
1800
1C00
1C00
1C00
1C00
1C00
1C00
1C00
1C00
1C00
1C00
1C00
1C00
1C00
1C00
1C00
1C00
1C00
1C00
1C00
1C00
1C00
1C00
1C00
0C00
0E00
0780
03F8
01F8
ENDCHAR
STARTCHAR 007C
ENCODING 124
SWIDTH 222 0
DWIDTH 13 0
BBX 3 42 5 0
BITMAP
E0
E0
E0
E0
E0
E0
E0
E0
E0
E0
E0
E0
E0
E0
E0
E0
E0
E0
E0
E0
E0
E0
E0
E0
E0
E0
E0
E0
E0
E0
E0
E0
E0
E0
E0
E0
E0
E0
E0
E0
E0
E0
ENDCHAR
STARTCHAR 007D
ENCODING 125
SWIDTH 394 0
DWIDTH 23 0
BBX 12 64 3 -13
BITMAP
FC00
FE00
0700
0300
0380
0380
0380
0380
0380
0380
0380
0380
0380
0380
0380
0380
0380
0380
0380
0380
0380
0380
0380
0380
0380
0380
0380
0180
01C0
00E0
00F0
0070
0070
00E0
01C0
01C0
0180
0380
0380
0380
0380
0380
0380
0380
0380
0380
0380
0380
0380
0380
0380
0380
0380
0380
0380
0380
0380
0380
0380
0380
0700
1F00
FE00
F800
ENDCHAR
STARTCHAR 007E
ENCODING 126
SWIDTH 634 0
DWIDTH 37 0
BBX 22 7 7 15
BITMAP
1F001C
7FE00C
7FF81C
F9FE1C
E07FFC
E01FF8
E007F0
ENDCHAR
STARTCHAR 00A0
ENCODING 160
SWIDTH 205 0
DWIDTH 12 0
BBX 0 0 0 0
BITMAP
ENDCHAR
STARTCHAR 00A1
ENCODING 161
SWIDTH 274 0
DWIDTH 16 0
BBX 2 42 7 -10
BITMAP
C0
C0
C0
C0
00
00
00
00
00
00
C0
C0
C0
C0
C0
C0
C0
C0
C0
C0
C0
C0
C0
C0
C0
C0
C0
C0
C0
C0
C0
C0
C0
C0
C0
C0
C0
C0
C0
C0
C0
C0
ENDCHAR
STARTCHAR 00A2
ENCODING 162
SWIDTH 531 0
DWIDTH 31 0
BBX 27 44 2 -2
BITMAP
00030000
00030000
00030000
00030000
00030000
00030000
007FF000
01FFFC00
03E03F00
07800780
0E0003C0
1C0001C0
380000E0
38000060
30000000
70000000
70000000
60000000
60000000
E0000000
E0000000
E0000000
E0000000
E0000000
E0000000
60000000
60000000
70000000
70000000
30000000
38000060
380000E0
1C0001C0
0E0003C0
07800780
03E03F00
01FFFC00
007FF000
00030000
00030000
00030000
00030000
00030000
00030000
ENDCHAR
STARTCHAR 00A3
ENCODING 163
SWIDTH 565 0
DWIDTH 33 0
BBX 29 42 2 0
BITMAP
0001FC00
0007FF00
000FDF80
001C03C0
003800E0
00700070
00600070
00600038
00E00038
00E00018
00E00010
00E00000
00E00000
00E00000
00E00000
00E00000
00E00000
00E00000
00E00000
00E00000
FFFFFC00
FFFFFC00
00E00000
00E00000
00E00000
00E00000
00E00000
00E00000
00E00000
00E00000
00E00000
00E00000
00E00000
00E00000
00E00000
00E00000
00E00000
00E00000
01E00000
0FE00000
FFFFFFF8
FFFFFFF8
ENDCHAR
STARTCHAR 00A4
ENCODING 164
SWIDTH 617 0
DWIDTH 36 0
BBX 32 32 2 4
BITMAP
40000003
E01FF807
707FFF0E
39F81F9C
1FC003F8
0F8000F0
0E000070
1C000038
1C00001C
3800001C
3000000C
7000000E
7000000E
70000006
60000006
60000006
60000006
60000006
70000006
7000000E
7000000E
3000000C
3800001C
1C00001C
1C000038
0E000070
0F8000F0
1FC003F8
39F80F9C
707FFF0E
E01FFC07
C0000003
ENDCHAR
STARTCHAR 00A5
ENCODING 165
SWIDTH 514 0
DWIDTH 30 0
BBX 30 42 0 0
BITMAP
E000001C
70000018
70000038
38000070
18000070
1C0000E0
0E0000E0
0E0001C0
07000180
07000380
03800700
01800700
01C00E00
00E00C00
00E01C00
00703800
00303800
00387000
001C7000
001CE000
000EC000
000FC000
00078000
00038000
00030000
07FFFFC0
07FFFFC0
00030000
00030000
00030000
00030000
00030000
00030000
07FFFFC0
07FFFFC0
00030000
00030000
00030000
00030000
00030000
00030000
00030000
ENDCHAR
STARTCHAR 00A6
ENCODING 166
SWIDTH 222 0
DWIDTH 13 0
BBX 3 49 5 -7
BITMAP
E0
E0
E0
E0
E0
E0
E0
E0
E0
E0
E0
E0
E0
E0
E0
E0
E0
E0
E0
E0
00
00
00
00
00
00
00
00
00
E0
E0
E0
E0
E0
E0
E0
E0
E0
E0
E0
E0
E0
E0
E0
E0
E0
E0
E0
E0
ENDCHAR
STARTCHAR 00A7
ENCODING 167
SWIDTH 514 0
DWIDTH 30 0
BBX 25 47 3 -9
BITMAP
00FE0000
07FFC000
0FEFF000
1E00F800
38003C00
70001C00
70000E00
60000E00
60000600
70000000
70000000
38000000
3C000000
1F800000
07F80000
03FF0000
1F1FE000
3C03FC00
78003E00
F0000F00
E0000700
C0000380
C0000380
C0000380
E0000380
E0000380
70000380
3C000700
1FC00F00
07F81E00
00FFFC00
001FF000
0001F800
00003C00
00000E00
00000600
00000700
00000700
00000700
60000700
70000700
70000E00
38000E00
1E003C00
0F80F800
07FFF000
01FFC000
ENDCHAR
STARTCHAR 00A8
ENCODING 168
SWIDTH 480 0
DWIDTH 28 0
BBX 14 3 7 49
BITMAP
E03C
E03C
E03C
ENDCHAR
STARTCHAR 00A9
ENCODING 169
SWIDTH 754 0
DWIDTH 44 0
BBX 40 40 2 0
BITMAP
0000300000
0007FFC000
001FFFF800
007F00FC00
00F8001F00
03E0000780
07800003C0
0F000000E0
0E00FE0070
1C03FFC078
3807E7E038
380F00F01C
701E00781C
701C00380E
603800100E
E038000006
E030000006
C070000007
C070000007
C070000007
C070000007
C070000007
C070000007
E070000007
E030000006
E03800000E
603800180E
701C00380C
300E00701C
380F81E03C
1C03FFC038
1C01FF8070
0E000000F0
07800001E0
03C00003C0
01F0000F80
00FC007E00
003FFFFC00
000FFFF000
0001FF8000
ENDCHAR
STARTCHAR 00AA
ENCODING 170
SWIDTH 308 0
DWIDTH 18 0
BBX 14 17 2 16
BITMAP
0300
1FF0
3FF8
7838
701C
001C
001C
07FC
1FFC
7E1C
701C
E01C
E01C
E03C
70EC
7FEC
1F8C
ENDCHAR
STARTCHAR 00AB
ENCODING 171
SWIDTH 497 0
DWIDTH 29 0
BBX 20 25 5 3
BITMAP
004020
00E070
00E0E0
01C0E0
0381C0
070380
0E0700
0E0E00
1C0E00
381C00
703800
E07000
E0E000
E07000
703800
381C00
1C0E00
0E0E00
0E0700
070380
0381C0
01C0E0
00E0E0
00E070
004020
ENDCHAR
STARTCHAR 00AC
ENCODING 172
SWIDTH 600 0
DWIDTH 35 0
BBX 28 9 3 12
BITMAP
FFFFFFF0
FFFFFFF0
00000030
00000030
00000030
00000030
00000030
00000030
00000030
ENDCHAR
STARTCHAR 00AD
ENCODING 173
SWIDTH 428 0
DWIDTH 25 0
BBX 18 2 3 17
BITMAP
FFFFC0
FFFFC0
ENDCHAR
STARTCHAR 00AE
ENCODING 174
SWIDTH 600 0
DWIDTH 35 0
BBX 27 26 4 18
BITMAP
007FE000
01FFF800
07C07C00
0F001E00
1E000700
38000380
387F8180
707FC1C0
7060E0C0
606060E0
E06060E0
E0606060
E060E060
E07FC060
E07F8060
E06180E0
E061C0E0
6060C0C0
7060E1C0
386061C0
38000380
1E000700
0F001E00
07C07C00
03FFF800
007FE000
ENDCHAR
STARTCHAR 00AF
ENCODING 175
SWIDTH 480 0
DWIDTH 28 0
BBX 14 2 7 49
BITMAP
FFFC
FFFC
ENDCHAR
STARTCHAR 00B0
ENCODING 176
SWIDTH 445 0
DWIDTH 26 0
BBX 21 20 2 22
BITMAP
01F800
07FF00
1FDF80
3C03C0
3800E0
700070
E00070
E00030
C00038
C00038
C00038
C00038
E00030
E00070
700070
7000E0
3C01E0
1F07C0
0FFF00
03FE00
ENDCHAR
STARTCHAR 00B1
ENCODING 177
SWIDTH 600 0
DWIDTH 35 0
BBX 28 27 3 5
BITMAP
00070000
00070000
00070000
00070000
00070000
00070000
00070000
00070000
FFFFFFF0
FFFFFFF0
00070000
00070000
00070000
00070000
00070000
00070000
00070000
00070000
00070000
00000000
00000000
00000000
00000000
00000000
00000000
FFFFFFF0
FFFFFFF0
ENDCHAR
STARTCHAR 00B2
ENCODING 178
SWIDTH 394 0
DWIDTH 23 0
BBX 17 26 3 16
BITMAP
03E000
0FF800
3E3E00
780E00
700700
E00300
E00380
E00380
000380
000380
000380
000300
000700
000E00
001C00
003800
00F000
01E000
03C000
078000
0F0000
1C0000
380000
700000
FFFF80
FFFF80
ENDCHAR
STARTCHAR 00B3
ENCODING 179
SWIDTH 377 0
DWIDTH 22 0
BBX 17 27 2 15
BITMAP
7FFF00
7FFF00
000700
000E00
001C00
003800
007000
00E000
01C000
038000
07F000
0FF800
043E00
000E00
000700
000300
000300
000380
000380
000380
000300
E00300
700700
780E00
3E7C00
1FF800
07E000
ENDCHAR
STARTCHAR 00B4
ENCODING 180
SWIDTH 462 0
DWIDTH 27 0
BBX 5 8 11 47
BITMAP
18
38
30
70
70
60
E0
E0
ENDCHAR
STARTCHAR 00B5
ENCODING 181
SWIDTH 582 0
DWIDTH 34 0
BBX 26 45 4 -13
BITMAP
E00001C0
E00001C0
E00001C0
E00001C0
E00001C0
E00001C0
E00001C0
E00001C0
E00001C0
E00001C0
E00001C0
E00001C0
E00001C0
E00001C0
E00001C0
E00001C0
E00001C0
E00001C0
E00001C0
E00001C0
E00001C0
E00001C0
E00001C0
F00003C0
F00003C0
F80007C0
F80006C0
DC001EC0
CF003CC0
C7F3F8C0
C1FFE0C0
C07F80C0
C0000000
C0000000
C0000000
C0000000
C0000000
C0000000
C0000000
C0000000
C0000000
C0000000
C0000000
C0000000
C0000000
ENDCHAR
STARTCHAR 00B6
ENCODING 182
SWIDTH 582 0
DWIDTH 34 0
BBX 24 50 5 -8
BITMAP
007FC7
03FFC7
07FFC7
0FFFC7
1FFFC7
3FFFC7
3FFFC7
7FFFC7
7FFFC7
7FFFC7
FFFFC7
FFFFC7
FFFFC7
FFFFC7
FFFFC7
FFFFC7
7FFFC7
7FFFC7
7FFFC7
3FFFC7
1FFFC7
0FFFC7
07FFC7
03FFC7
00FFC7
0001C7
0001C7
0001C7
0001C7
0001C7
0001C7
0001C7
0001C7
0001C7
0001C7
0001C7
0001C7
0001C7
0001C7
0001C7
0001C7
0001C7
0001C7
0001C7
0001C7
0001C7
0001C7
0001C7
0001C7
0001C7
ENDCHAR
STARTCHAR 00B7
ENCODING 183
SWIDTH 205 0
DWIDTH 12 0
BBX 5 5 3 16
BITMAP
30
78
F8
78
70
ENDCHAR
STARTCHAR 00B8
ENCODING 184
SWIDTH 394 0
DWIDTH 23 0
BBX 9 14 7 -14
BITMAP
0E00
0C00
1C00
1800
1C00
3E00
0F00
0300
0380
0380
0300
4F00
FE00
7C00
ENDCHAR
STARTCHAR 00B9
ENCODING 185
SWIDTH 308 0
DWIDTH 18 0
BBX 8 26 3 16
BITMAP
07
1F
7F
F7
C7
87
07
07
07
07
07
07
07
07
07
07
07
07
07
07
07
07
07
07
07
07
ENDCHAR
STARTCHAR 00BA
ENCODING 186
SWIDTH 342 0
DWIDTH 20 0
BBX 16 16 2 16
BITMAP
07E0
1FF8
3FFC
781C
700E
600E
E006
E006
E007
E006
600E
700E
701E
3C3C
1FF8
0FF0
ENDCHAR
STARTCHAR 00BB
ENCODING 187
SWIDTH 497 0
DWIDTH 29 0
BBX 21 25 4 3
BITMAP
402000
E07000
703800
381800
181C00
1C0E00
0E0700
070380
038180
0181C0
01C0E0
00E070
007038
00E070
01C0E0
0181C0
038380
070380
0E0700
1C0E00
181C00
383800
703800
E07000
402000
ENDCHAR
STARTCHAR 00BC
ENCODING 188
SWIDTH 925 0
DWIDTH 54 0
BBX 44 42 3 0
BITMAP
070000001000
1F0000003800
7F0000007800
F7000000F000
C7000000E000
87000001C000
070000038000
070000078000
0700000F0000
0700000E0000
0700001C0000
070000380000
070000780000
070000F00000
070000E00000
070001C00000
070003801C00
070007801800
07000F003800
07000E003000
07001C007000
07003C007000
07007800E000
0700F000E000
0700E001C000
0701C001C000
0003C0038000
000780038180
000700030180
000E00070180
001C00060180
003C000E0180
0078000C0180
0070001C0180
00E000180180
01C0001FFFF0
03C0001FFFF0
078000000180
070000000180
0E0000000180
1E0000000180
040000000180
ENDCHAR
STARTCHAR 00BD
ENCODING 189
SWIDTH 874 0
DWIDTH 51 0
BBX 45 42 3 0
BITMAP
070000001000
1F0000003800
7F0000007800
F7000000F000
C7000000E000
87000001C000
070000038000
070000078000
0700000F0000
0700000E0000
0700001C0000
070000380000
070000780000
070000F00000
070000E00000
070001C03F00
07000380FFC0
07000781F3E0
07000F038070
07000E070038
07001C070038
07003C060018
070078060018
0700F0000018
0700E0000018
0701C0000018
0003C0000038
000780000038
000700000070
000E000000E0
001C000001C0
003C00000780
007800000F00
007000001E00
00E000003C00
01C000007800
03C00000F000
07800001C000
070000038000
0E0000070000
1E00000FFFF8
0400000FFFF8
ENDCHAR
STARTCHAR 00BE
ENCODING 190
SWIDTH 942 0
DWIDTH 55 0
BBX 50 42 2 0
BITMAP
7FFF0000008000
7FFF000001C000
0007000003C000
000E0000038000
001C0000070000
003800000E0000
007000001E0000
00E000003C0000
01C00000380000
03800000700000
07F00000F00000
0FF80001E00000
043E0003C00000
000E0003800000
00070007000000
0003000F000000
0003001E006000
0003801C00E000
0003803800C000
0003807001C000
000300F0018000
E00301E0038000
700701C0030000
780E0380070000
3E7C0700060000
1FF80F000E0000
07E01E000E0000
00001C001C0E00
000038001C0E00
00007800380E00
0000F000380E00
0001E000700E00
0001C000700E00
00038000600E00
00078000E00E00
000F0000FFFFC0
000E0000FFFFC0
001C0000000E00
00380000000E00
00780000000E00
00700000000E00
00200000000E00
ENDCHAR
STARTCHAR 00BF
ENCODING 191
SWIDTH 497 0
DWIDTH 29 0
BBX 23 43 3 -11
BITMAP
001C00
001C00
001C00
001C00
000000
000000
000000
000000
000000
000000
000000
000000
001C00
001C00
001C00
001C00
001800
001800
003800
007000
00F000
01E000
03C000
0F8000
1E0000
3C0000
780000
700000
600000
E00000
E00000
E00000
E00000
E00006
E00006
E00006
E0000E
70000C
78001C
3C0038
1F01F0
0FFFE0
03FF80
ENDCHAR
STARTCHAR 00C0
ENCODING 192
SWIDTH 617 0
DWIDTH 36 0
BBX 33 55 1 0
BITMAP
0006000000
0007000000
0007000000
0003000000
0003800000
0003800000
0001800000
0001C00000
0000000000
0000000000
0000000000
0000000000
0000000000
0001C00000
0001E00000
0001E00000
0003E00000
0003700000
0007700000
0007300000
0006380000
000E180000
000E1C0000
000C1C0000
001C0C0000
001C0E0000
00180E0000
0038060000
0030070000
0070070000
0070030000
0060038000
00E0018000
00E001C000
00C001C000
01C000C000
018000E000
018000E000
0380006000
0300007000
0700007000
0700003000
07FFFFF800
0FFFFFF800
0E00001C00
0C00001C00
1C00000C00
1800000E00
1800000E00
3800000600
3000000700
7000000700
7000000300
6000000380
E000000180
ENDCHAR
STARTCHAR 00C1
ENCODING 193
SWIDTH 617 0
DWIDTH 36 0
BBX 33 55 1 0
BITMAP
0000380000
0000300000
0000300000
0000700000
0000600000
0000E00000
0000E00000
0000C00000
0000000000
0000000000
0000000000
0000000000
0000000000
0001C00000
0001E00000
0001E00000
0003E00000
0003700000
0007700000
0007300000
0006380000
000E180000
000E1C0000
000C1C0000
001C0C0000
00180E0000
00180E0000
0038060000
0030070000
0070070000
0070030000
0060038000
00E0018000
00E001C000
00C001C000
01C000C000
018000E000
018000E000
0380006000
0300007000
0700007000
0700003000
07FFFFF800
0FFFFFF800
0E00001C00
0C00001C00
1C00000C00
1800000E00
1800000E00
3800000600
3000000700
7000000700
7000000300
6000000380
E000000180
ENDCHAR
STARTCHAR 00C2
ENCODING 194
SWIDTH 617 0
DWIDTH 36 0
BBX 33 54 1 0
BITMAP
0001E00000
0003E00000
0007700000
000E380000
000E1C0000
001C0E0000
0038070000
0000000000
0000000000
0000000000
0000000000
0000000000
0001C00000
0001E00000
0001E00000
0003E00000
0003700000
0007700000
0007300000
0006380000
000E180000
000E1C0000
000C1C0000
001C0C0000
00180E0000
00180E0000
0038060000
0030070000
0070070000
0070030000
0060038000
00E0018000
00E001C000
00C001C000
01C000C000
018000E000
018000E000
0380006000
0300007000
0700007000
0700003000
07FFFFF800
0FFFFFF800
0E00001C00
0C00001C00
1C00000C00
1800000E00
1800000E00
3800000600
3000000700
7000000700
7000000300
6000000380
E000000180
ENDCHAR
STARTCHAR 00C3
ENCODING 195
SWIDTH 617 0
DWIDTH 36 0
BBX 33 54 1 0
BITMAP
001E018000
007F818000
0077E38000
0060FF0000
00603E0000
0000000000
0000000000
0000000000
0000000000
0000000000
0000000000
0000000000
0001C00000
0001E00000
0001E00000
0003E00000
0003700000
0007700000
0007300000
0006380000
000E180000
000E1C0000
000C1C0000
001C0C0000
00180E0000
00180E0000
0038060000
0030070000
0070070000
0070030000
0060038000
00E0018000
00E001C000
00C001C000
01C000C000
018000E000
018000E000
0380006000
0300007000
0700007000
0700003000
07FFFFF800
0FFFFFF800
0E00001C00
0C00001C00
1C00000C00
1800000E00
1800000E00
3800000600
3000000700
7000000700
7000000300
6000000380
E000000180
ENDCHAR
STARTCHAR 00C4
ENCODING 196
SWIDTH 617 0
DWIDTH 36 0
BBX 33 52 1 0
BITMAP
00380F0000
00380F0000
00380F0000
0000000000
0000000000
0000000000
0000000000
0000000000
0000000000
0000000000
0001C00000
0001E00000
0001E00000
0003E00000
0003700000
0007700000
0007300000
0006380000
000E180000
000E1C0000
000C1C0000
001C0C0000
00180E0000
00180E0000
0038060000
0030070000
0070070000
0070030000
0060038000
00E0018000
00E001C000
00C001C000
01C000C000
018000E000
018000E000
0380006000
0300007000
0700007000
0700003000
07FFFFF800
0FFFFFF800
0E00001C00
0C00001C00
1C00000C00
1800000E00
1800000E00
3800000600
3000000700
7000000700
7000000300
6000000380
E000000180
ENDCHAR
STARTCHAR 00C5
ENCODING 197
SWIDTH 617 0
DWIDTH 36 0
BBX 33 57 1 0
BITMAP
0003E00000
0007F80000
000FF80000
000C1C0000
001C0C0000
001C0C0000
001C0C0000
001C1C0000
000E3C0000
0007F80000
0003F00000
0000000000
0000000000
0000000000
0000000000
0001C00000
0001E00000
0001E00000
0003E00000
0003700000
0007700000
0007300000
0006380000
000E180000
000E1C0000
000C1C0000
001C0C0000
00180E0000
00180E0000
0038060000
0030070000
0070070000
0070030000
0060038000
00E0018000
00E001C000
00C001C000
01C000C000
018000E000
018000E000
0380006000
0300007000
0700007000
0700003000
07FFFFF800
0FFFFFF800
0E00001C00
0C00001C00
1C00000C00
1800000E00
1800000E00
3800000600
3000000700
7000000700
7000000300
6000000380
E000000180
ENDCHAR
STARTCHAR 00C6
ENCODING 198
SWIDTH 908 0
DWIDTH 53 0
BBX 49 42 1 0
BITMAP
0001FFFFFFFF80
0001FFFFFFFF80
000181C0000000
000381C0000000
000301C0000000
000701C0000000
000701C0000000
000601C0000000
000E01C0000000
000E01C0000000
000C01C0000000
001C01C0000000
001801C0000000
001801C0000000
003801C0000000
003001C0000000
007001C0000000
007001C0000000
006001C0000000
00E001C0000000
00E001FFFFF800
00C001FFFFF800
01C001C0000000
018001C0000000
018001C0000000
038001C0000000
030001C0000000
070001C0000000
070001C0000000
07FFFFC0000000
0FFFFFC0000000
0E0001C0000000
0C0001C0000000
1C0001C0000000
180001C0000000
180001C0000000
380001C0000000
300001C0000000
700001C0000000
700001C0000000
600001FFFFFF80
E00001FFFFFF80
ENDCHAR
STARTCHAR 00C7
ENCODING 199
SWIDTH 702 0
DWIDTH 41 0
BBX 36 55 2 -13
BITMAP
0003FE0000
003FFFE000
00FFDFF800
01F0007C00
03C0001E00
0780000F00
0F00000380
1E000001C0
1C000001C0
38000000E0
3800000060
7000000070
7000000070
6000000030
E000000000
E000000000
E000000000
E000000000
C000000000
C000000000
C000000000
C000000000
C000000000
C000000000
E000000000
E000000000
E000000000
E000000000
6000000030
7000000070
7000000070
3800000060
38000000E0
1C000001C0
1C000001C0
0E00000380
0780000700
03C0001E00
01F0007C00
00FFDFF800
003FFFE000
0003FF0000
0000180000
0000380000
0000300000
0000700000
00007C0000
00001E0000
00000E0000
0000060000
0000060000
00000E0000
00019E0000
0001FC0000
0000F80000
ENDCHAR
STARTCHAR 00C8
ENCODING 200
SWIDTH 565 0
DWIDTH 33 0
BBX 26 55 4 0
BITMAP
00380000
00380000
00180000
001C0000
000C0000
000C0000
000E0000
00060000
00000000
00000000
00000000
00000000
00000000
FFFFFFC0
FFFFFFC0
E0000000
E0000000
E0000000
E0000000
E0000000
E0000000
E0000000
E0000000
E0000000
E0000000
E0000000
E0000000
E0000000
E0000000
E0000000
E0000000
E0000000
E0000000
FFFFFC00
FFFFFC00
E0000000
E0000000
E0000000
E0000000
E0000000
E0000000
E0000000
E0000000
E0000000
E0000000
E0000000
E0000000
E0000000
E0000000
E0000000
E0000000
E0000000
E0000000
FFFFFFC0
FFFFFFC0
ENDCHAR
STARTCHAR 00C9
ENCODING 201
SWIDTH 565 0
DWIDTH 33 0
BBX 26 55 4 0
BITMAP
00018000
00038000
00038000
00030000
00070000
00070000
00060000
000E0000
00000000
00000000
00000000
00000000
00000000
FFFFFFC0
FFFFFFC0
E0000000
E0000000
E0000000
E0000000
E0000000
E0000000
E0000000
E0000000
E0000000
E0000000
E0000000
E0000000
E0000000
E0000000
E0000000
E0000000
E0000000
E0000000
FFFFFC00
FFFFFC00
E0000000
E0000000
E0000000
E0000000
E0000000
E0000000
E0000000
E0000000
E0000000
E0000000
E0000000
E0000000
E0000000
E0000000
E0000000
E0000000
E0000000
E0000000
FFFFFFC0
FFFFFFC0
ENDCHAR
STARTCHAR 00CA
ENCODING 202
SWIDTH 565 0
DWIDTH 33 0
BBX 26 54 4 0
BITMAP
001C0000
003E0000
00770000
00E38000
01C1C000
01C0E000
03806000
00000000
00000000
00000000
00000000
00000000
FFFFFFC0
FFFFFFC0
E0000000
E0000000
E0000000
E0000000
E0000000
E0000000
E0000000
E0000000
E0000000
E0000000
E0000000
E0000000
E0000000
E0000000
E0000000
E0000000
E0000000
E0000000
FFFFFC00
FFFFFC00
E0000000
E0000000
E0000000
E0000000
E0000000
E0000000
E0000000
E0000000
E0000000
E0000000
E0000000
E0000000
E0000000
E0000000
E0000000
E0000000
E0000000
E0000000
FFFFFFC0
FFFFFFC0
ENDCHAR
STARTCHAR 00CB
ENCODING 203
SWIDTH 565 0
DWIDTH 33 0
BBX 26 52 4 0
BITMAP
0780E000
0780E000
0780E000
00000000
00000000
00000000
00000000
00000000
00000000
00000000
FFFFFFC0
FFFFFFC0
E0000000
E0000000
E0000000
E0000000
E0000000
E0000000
E0000000
E0000000
E0000000
E0000000
E0000000
E0000000
E0000000
E0000000
E0000000
E0000000
E0000000
E0000000
FFFFFC00
FFFFFC00
E0000000
E0000000
E0000000
E0000000
E0000000
E0000000
E0000000
E0000000
E0000000
E0000000
E0000000
E0000000
E0000000
E0000000
E0000000
E0000000
E0000000
E0000000
FFFFFFC0
FFFFFFC0
ENDCHAR
STARTCHAR 00CC
ENCODING 204
SWIDTH 205 0
DWIDTH 12 0
BBX 5 55 2 0
BITMAP
C0
E0
60
70
70
30
38
38
00
00
00
00
00
18
18
18
18
18
18
18
18
18
18
18
18
18
18
18
18
18
18
18
18
18
18
18
18
18
18
18
18
18
18
18
18
18
18
18
18
18
18
18
18
18
18
ENDCHAR
STARTCHAR 00CD
ENCODING 205
SWIDTH 205 0
DWIDTH 12 0
BBX 5 55 5 0
BITMAP
38
30
30
70
60
E0
E0
C0
00
00
00
00
00
C0
C0
C0
C0
C0
C0
C0
C0
C0
C0
C0
C0
C0
C0
C0
C0
C0
C0
C0
C0
C0
C0
C0
C0
C0
C0
C0
C0
C0
C0
C0
C0
C0
C0
C0
C0
C0
C0
C0
C0
C0
C0
ENDCHAR
STARTCHAR 00CE
ENCODING 206
SWIDTH 205 0
DWIDTH 12 0
BBX 14 54 -1 0
BITMAP
0780
0FC0
1DC0
1CE0
3870
7038
E01C
0000
0000
0000
0000
0000
0300
0300
0300
0300
0300
0300
0300
0300
0300
0300
0300
0300
0300
0300
0300
0300
0300
0300
0300
0300
0300
0300
0300
0300
0300
0300
0300
0300
0300
0300
0300
0300
0300
0300
0300
0300
0300
0300
0300
0300
0300
0300
ENDCHAR
STARTCHAR 00CF
ENCODING 207
SWIDTH 205 0
DWIDTH 12 0
BBX 14 52 -1 0
BITMAP
E03C
E03C
E03C
0000
0000
0000
0000
0000
0000
0000
0300
0300
0300
0300
0300
0300
0300
0300
0300
0300
0300
0300
0300
0300
0300
0300
0300
0300
0300
0300
0300
0300
0300
0300
0300
0300
0300
0300
0300
0300
0300
0300
0300
0300
0300
0300
0300
0300
0300
0300
0300
0300
ENDCHAR
STARTCHAR 00D0
ENCODING 208
SWIDTH 634 0
DWIDTH 37 0
BBX 34 42 1 0
BITMAP
3FFFF80000
3FFFFF0000
3801FFC000
380003F000
3800007800
3800003C00
3800001C00
3800000E00
3800000600
3800000700
3800000300
3800000380
3800000380
3800000180
3800000180
38000001C0
38000001C0
38000001C0
38000001C0
38000001C0
FFFF8001C0
FFFF8001C0
38000001C0
38000001C0
38000001C0
38000001C0
38000001C0
3800000180
3800000180
3800000380
3800000380
3800000300
3800000700
3800000E00
3800000E00
3800001C00
3800003C00
3800007800
380003F000
3800FFC000
3FFFFF8000
3FFFFC0000
ENDCHAR
STARTCHAR 00D1
ENCODING 209
SWIDTH 668 0
DWIDTH 39 0
BBX 31 52 4 0
BITMAP
007E0300
007F8300
00E3F700
00C0FE00
00C03C00
00000000
00000000
00000000
00000000
00000000
E000000E
F000000E
F000000E
F800000E
FC00000E
FC00000E
EE00000E
E700000E
E700000E
E380000E
E1C0000E
E1C0000E
E0E0000E
E070000E
E070000E
E038000E
E01C000E
E01C000E
E00E000E
E007000E
E007000E
E003800E
E001C00E
E000C00E
E000E00E
E000700E
E000380E
E000380E
E0001C0E
E0000E0E
E0000E0E
E000070E
E000038E
E000038E
E00001CE
E00000EE
E00000EE
E000007E
E000003E
E000003E
E000001E
E000000E
ENDCHAR
STARTCHAR 00D2
ENCODING 210
SWIDTH 702 0
DWIDTH 41 0
BBX 37 54 2 0
BITMAP
0001800000
0001C00000
0000C00000
0000E00000
0000E00000
0000600000
0000700000
0000700000
0000000000
0000000000
0000000000
0000000000
0003FE0000
003FFFE000
00FFDFF800
01F0007C00
03C0001E00
0780000F00
0F00000380
1E000001C0
1C000001C0
38000000E0
3800000060
7000000070
7000000070
6000000030
E000000038
E000000038
E000000038
E000000018
C000000018
C000000018
C000000018
C000000018
C000000018
C000000018
E000000018
E000000038
E000000038
E000000038
6000000038
7000000070
7000000070
3800000060
38000000E0
1C000001E0
1C000001C0
0E00000380
0780000F00
03C0001E00
01F0007C00
00FFDFF800
003FFFE000
0003FE0000
ENDCHAR
STARTCHAR 00D3
ENCODING 211
SWIDTH 702 0
DWIDTH 41 0
BBX 37 54 2 0
BITMAP
00000E0000
00000E0000
00000C0000
00001C0000
00001C0000
0000180000
0000380000
0000380000
0000000000
0000000000
0000000000
0000000000
0003FE0000
003FFFE000
00FFDFF800
01F0007C00
03C0001E00
0780000F00
0F00000380
1E000001C0
1C000001C0
38000000E0
3800000060
7000000070
7000000070
6000000030
E000000038
E000000038
E000000038
E000000018
C000000018
C000000018
C000000018
C000000018
C000000018
C000000018
E000000018
E000000038
E000000038
E000000038
6000000038
7000000070
7000000070
3800000060
38000000E0
1C000001E0
1C000001C0
0E00000380
0780000F00
03C0001E00
01F0007C00
00FFDFF800
003FFFE000
0003FE0000
ENDCHAR
STARTCHAR 00D4
ENCODING 212
SWIDTH 702 0
DWIDTH 41 0
BBX 37 53 2 0
BITMAP
0000700000
0000F80000
0001DC0000
00038E0000
0007070000
000E038000
000E01C000
0000000000
0000000000
0000000000
0000000000
0003FE0000
003FFFE000
00FFDFF800
01F0007C00
03C0001E00
0780000F00
0F00000380
1E000001C0
1C000001C0
38000000E0
3800000060
7000000070
7000000070
6000000030
E000000038
E000000038
E000000038
E000000018
C000000018
C000000018
C000000018
C000000018
C000000018
C000000018
E000000018
E000000038
E000000038
E000000038
6000000038
7000000070
7000000070
3800000060
38000000E0
1C000001E0
1C000001C0
0E00000380
0780000F00
03C0001E00
01F0007C00
00FFDFF800
003FFFE000
0003FE0000
ENDCHAR
STARTCHAR 00D5
ENCODING 213
SWIDTH 702 0
DWIDTH 41 0
BBX 37 51 2 0
BITMAP
000FC06000
000FF06000
001C7EE000
00181FC000
0018078000
0000000000
0000000000
0000000000
0000000000
0003FE0000
003FFFE000
00FFDFF800
01F0007C00
03C0001E00
0780000F00
0F00000380
1E000001C0
1C000001C0
38000000E0
3800000060
7000000070
7000000070
6000000030
E000000038
E000000038
E000000038
E000000018
C000000018
C000000018
C000000018
C000000018
C000000018
C000000018
E000000018
E000000038
E000000038
E000000038
6000000038
7000000070
7000000070
3800000060
38000000E0
1C000001E0
1C000001C0
0E00000380
0780000F00
03C0001E00
01F0007C00
00FFDFF800
003FFFE000
0003FE0000
ENDCHAR
STARTCHAR 00D6
ENCODING 214
SWIDTH 702 0
DWIDTH 41 0
BBX 37 51 2 0
BITMAP
000E03C000
000E03C000
000E03C000
0000000000
0000000000
0000000000
0000000000
0000000000
0000000000
0003FE0000
003FFFE000
00FFDFF800
01F0007C00
03C0001E00
0780000F00
0F00000380
1E000001C0
1C000001C0
38000000E0
3800000060
7000000070
7000000070
6000000030
E000000038
E000000038
E000000038
E000000018
C000000018
C000000018
C000000018
C000000018
C000000018
C000000018
E000000018
E000000038
E000000038
E000000038
6000000038
7000000070
7000000070
3800000060
38000000E0
1C000001E0
1C000001C0
0E00000380
0780000F00
03C0001E00
01F0007C00
00FFDFF800
003FFFE000
0003FE0000
ENDCHAR
STARTCHAR 00D7
ENCODING 215
SWIDTH 480 0
DWIDTH 28 0
BBX 20 21 4 10
BITMAP
400020
E00070
F000E0
7801C0
3C0380
1E0700
0F0E00
079C00
03F800
01F000
00F000
01F800
03BC00
071E00
0E0F00
1C0780
3803C0
7001E0
E000F0
C00070
000020
ENDCHAR
STARTCHAR 00D8
ENCODING 216
SWIDTH 702 0
DWIDTH 41 0
BBX 41 42 0 0
BITMAP
0000FF800100
000FFFF80380
003FF7FE0700
007C001F0E00
00F00007DC00
01E00003F800
03C00000F000
07800000F000
07000001F800
0E000003F800
0E0000079C00
1C00000F1C00
1C00001E1C00
1800003C0E00
380000780E00
380000700E00
380000E00E00
380001C00600
300003800600
300007000600
30000E000600
30001C000600
300038000600
300070000600
3800E0000600
3801C0000E00
380380000E00
380700000E00
180E00000C00
1C1C00001C00
1C3800001C00
0C7000001800
0EE000003800
07C000007000
078000007000
07800000E000
0FE00003C000
1EF000078000
3C7C001F0000
783FF7FE0000
F00FFFF80000
2000FF800000
ENDCHAR
STARTCHAR 00D9
ENCODING 217
SWIDTH 685 0
DWIDTH 40 0
BBX 32 55 4 0
BITMAP
00060000
00070000
00030000
00038000
00038000
00018000
0001C000
0001C000
00000000
00000000
00000000
00000000
00000000
E0000003
E0000003
E0000003
E0000003
E0000003
E0000003
E0000003
E0000003
E0000003
E0000003
E0000003
E0000003
E0000003
E0000003
E0000003
E0000003
E0000003
E0000003
E0000003
E0000003
E0000003
E0000003
E0000003
E0000003
E0000003
E0000003
E0000003
E0000003
E0000007
E0000007
E0000007
70000006
7000000E
3800000E
3800001C
1C00003C
1E000078
0F8000F0
07C003E0
01FC3F80
007FFF00
000FF800
ENDCHAR
STARTCHAR 00DA
ENCODING 218
SWIDTH 685 0
DWIDTH 40 0
BBX 32 55 4 0
BITMAP
00006000
0000E000
0000E000
0000C000
0001C000
0001C000
00018000
00038000
00000000
00000000
00000000
00000000
00000000
E0000003
E0000003
E0000003
E0000003
E0000003
E0000003
E0000003
E0000003
E0000003
E0000003
E0000003
E0000003
E0000003
E0000003
E0000003
E0000003
E0000003
E0000003
E0000003
E0000003
E0000003
E0000003
E0000003
E0000003
E0000003
E0000003
E0000003
E0000003
E0000007
E0000007
E0000007
70000006
7000000E
3800000E
3800001C
1C00003C
1E000078
0F8000F0
07C003E0
01FC3F80
007FFF00
000FF800
ENDCHAR
STARTCHAR 00DB
ENCODING 219
SWIDTH 685 0
DWIDTH 40 0
BBX 32 54 4 0
BITMAP
0003C000
0007E000
00077000
000E7000
001C3800
00381C00
00700E00
00000000
00000000
00000000
00000000
00000000
E0000003
E0000003
E0000003
E0000003
E0000003
E0000003
E0000003
E0000003
E0000003
E0000003
E0000003
E0000003
E0000003
E0000003
E0000003
E0000003
E0000003
E0000003
E0000003
E0000003
E0000003
E0000003
E0000003
E0000003
E0000003
E0000003
E0000003
E0000003
E0000007
E0000007
E0000007
70000006
7000000E
3800000E
3800001C
1C00003C
1E000078
0F8000F0
07C003E0
01FC3F80
007FFF00
000FF800
ENDCHAR
STARTCHAR 00DC
ENCODING 220
SWIDTH 685 0
DWIDTH 40 0
BBX 32 52 4 0
BITMAP
00780E00
00780E00
00780E00
00000000
00000000
00000000
00000000
00000000
00000000
00000000
E0000003
E0000003
E0000003
E0000003
E0000003
E0000003
E0000003
E0000003
E0000003
E0000003
E0000003
E0000003
E0000003
E0000003
E0000003
E0000003
E0000003
E0000003
E0000003
E0000003
E0000003
E0000003
E0000003
E0000003
E0000003
E0000003
E0000003
E0000003
E0000007
E0000007
E0000007
70000006
7000000E
3800000E
3800001C
1C00003C
1E000078
0F8000F0
07C003E0
01FC3F80
007FFF00
000FF800
ENDCHAR
STARTCHAR 00DD
ENCODING 221
SWIDTH 514 0
DWIDTH 30 0
BBX 30 55 0 0
BITMAP
0000C000
0001C000
00018000
00018000
00038000
00030000
00070000
00070000
00000000
00000000
00000000
00000000
00000000
E000001C
70000018
70000038
38000070
18000070
1C0000E0
0E0000E0
0E0001C0
07000180
07000380
03800700
01800700
01C00E00
00E00E00
00E01C00
00701800
00703800
00387000
001C7000
001CE000
000EC000
000FC000
00078000
00038000
00030000
00030000
00030000
00030000
00030000
00030000
00030000
00030000
00030000
00030000
00030000
00030000
00030000
00030000
00030000
00030000
00030000
00030000
ENDCHAR
STARTCHAR 00DE
ENCODING 222
SWIDTH 565 0
DWIDTH 33 0
BBX 28 42 4 0
BITMAP
E0000000
E0000000
E0000000
E0000000
E0000000
E0000000
E0000000
E0000000
E0000000
FFFFF000
FFFFFC00
E0003E00
E0000F00
E0000780
E00003C0
E00001C0
E00000E0
E00000E0
E0000060
E0000060
E0000070
E0000070
E0000060
E0000060
E00000E0
E00000E0
E00001C0
E00003C0
E0000780
E0000F00
E0003E00
FFFFFC00
FFFFF000
E0000000
E0000000
E0000000
E0000000
E0000000
E0000000
E0000000
E0000000
E0000000
ENDCHAR
STARTCHAR 00DF
ENCODING 223
SWIDTH 582 0
DWIDTH 34 0
BBX 26 42 4 0
BITMAP
01FE0000
07FFC000
1FEFE000
3E00F000
38007800
70003800
70001C00
E0001C00
E0001C00
E0001C00
E0000C00
E0001C00
E0001C00
E0001C00
E0003800
E0003800
E0007000
E001F000
E00FC000
E01F8000
E01FF000
E001FC00
E0003E00
E0000F00
E0000700
E0000380
E0000380
E00001C0
E00001C0
E00001C0
E00001C0
E00001C0
E00001C0
E00001C0
E0000380
E0000380
E0000700
E0000F00
E0003E00
E0FFFC00
E0FFF000
E0FF8000
ENDCHAR
STARTCHAR 00E0
ENCODING 224
SWIDTH 548 0
DWIDTH 32 0
BBX 26 44 2 0
BITMAP
00380000
00180000
001C0000
001C0000
000C0000
000E0000
00060000
00060000
00000000
00000000
00000000
00000000
003FC000
01FFF800
07FDFC00
0F800F00
1E000700
1C000380
38000180
380001C0
300001C0
000001C0
000000C0
000000C0
000000C0
0000FFC0
007FFFC0
03FFC0C0
0FE000C0
1E0000C0
380000C0
700001C0
700001C0
E00001C0
E00001C0
E00003C0
E00003C0
600007C0
70000EC0
38001CC0
3C0078C0
1FCFF0C0
07FFC0C0
01FF0000
ENDCHAR
STARTCHAR 00E1
ENCODING 225
SWIDTH 548 0
DWIDTH 32 0
BBX 26 44 2 0
BITMAP
0001C000
0001C000
00018000
00038000
00030000
00030000
00070000
00060000
00000000
00000000
00000000
00000000
003FC000
01FFF800
07FDFC00
0F800F00
1E000700
1C000380
38000180
380001C0
300001C0
000001C0
000000C0
000000C0
000000C0
0000FFC0
007FFFC0
03FFC0C0
0FE000C0
1E0000C0
380000C0
700001C0
700001C0
E00001C0
E00001C0
E00003C0
E00003C0
600007C0
70000EC0
38001CC0
3C0078C0
1FCFF0C0
07FFC0C0
01FF0000
ENDCHAR
STARTCHAR 00E2
ENCODING 226
SWIDTH 548 0
DWIDTH 32 0
BBX 26 43 2 0
BITMAP
000F0000
000F8000
001DC000
0038E000
0070E000
00E07000
01C03800
00000000
00000000
00000000
00000000
003FC000
01FFF800
07FDFC00
0F800F00
1E000700
1C000380
38000180
380001C0
300001C0
000001C0
000000C0
000000C0
000000C0
0000FFC0
007FFFC0
03FFC0C0
0FE000C0
1E0000C0
380000C0
700001C0
700001C0
E00001C0
E00001C0
E00003C0
E00003C0
600007C0
70000EC0
38001CC0
3C0078C0
1FCFF0C0
07FFC0C0
01FF0000
ENDCHAR
STARTCHAR 00E3
ENCODING 227
SWIDTH 548 0
DWIDTH 32 0
BBX 26 41 2 0
BITMAP
00F80C00
01FE0C00
038FDC00
0383FC00
0380F000
00000000
00000000
00000000
00000000
003FC000
01FFF800
07FDFC00
0F800F00
1E000700
1C000380
38000180
380001C0
300001C0
000001C0
000000C0
000000C0
000000C0
0000FFC0
007FFFC0
03FFC0C0
0FE000C0
1E0000C0
380000C0
700001C0
700001C0
E00001C0
E00001C0
E00003C0
E00003C0
600007C0
70000EC0
38001CC0
3C0078C0
1FCFF0C0
07FFC0C0
01FF0000
ENDCHAR
STARTCHAR 00E4
ENCODING 228
SWIDTH 548 0
DWIDTH 32 0
BBX 26 42 2 0
BITMAP
00E03C00
00E03C00
00E03C00
00E03C00
00000000
00000000
00000000
00000000
00000000
00000000
003FC000
01FFF800
07FDFC00
0F800F00
1E000700
1C000380
38000180
380001C0
300001C0
000001C0
000000C0
000000C0
000000C0
0000FFC0
007FFFC0
03FFC0C0
0FE000C0
1E0000C0
380000C0
700001C0
700001C0
E00001C0
E00001C0
E00003C0
E00003C0
600007C0
70000EC0
38001CC0
3C0078C0
1FCFF0C0
07FFC0C0
01FF0000
ENDCHAR
STARTCHAR 00E5
ENCODING 229
SWIDTH 548 0
DWIDTH 32 0
BBX 26 46 2 0
BITMAP
000F8000
003FC000
003FE000
00706000
00607000
00607000
00607000
00707000
0078E000
003FE000
001F8000
00000000
00000000
00000000
003FC000
01FFF800
07FDFC00
0F800F00
1E000700
1C000380
38000180
380001C0
300001C0
000001C0
000000C0
000000C0
000000C0
0000FFC0
007FFFC0
03FFC0C0
0FE000C0
1E0000C0
380000C0
700001C0
700001C0
E00001C0
E00001C0
E00003C0
E00003C0
600007C0
70000EC0
38001CC0
3C0078C0
1FCFF0C0
07FFC0C0
01FF0000
ENDCHAR
STARTCHAR 00E6
ENCODING 230
SWIDTH 942 0
DWIDTH 55 0
BBX 51 32 2 0
BITMAP
003FC0007F8000
01FFF801FFF000
07FDFC07FBF800
0F801E0F003C00
1E00071E000E00
1C0003BC000700
380003B8000380
380001F0000380
300001F0000180
000001E00001C0
000001E00001C0
000000E00000C0
000000C00000C0
000000C00000E0
000000C00000E0
03FFFFFFFFFFE0
0FC000FFFFFFE0
3C0000C0000000
380000C0000000
700001C0000000
600001C0000000
E00001E0000000
E00001E0000000
E00003E0000080
E00003F00001C0
60000738000380
70000F38000380
78001E1E000F00
3C007C0F001E00
1FEFF807FBFC00
07FFE001FFF000
01FF00007F8000
ENDCHAR
STARTCHAR 00E7
ENCODING 231
SWIDTH 531 0
DWIDTH 31 0
BBX 27 45 2 -13
BITMAP
001FE000
00FFF800
03FDFE00
07800F00
0F000380
1E0001C0
1C0000E0
380000E0
30000000
70000000
70000000
60000000
60000000
E0000000
E0000000
E0000000
E0000000
E0000000
E0000000
60000000
60000000
70000000
70000000
30000000
380000E0
1C0000E0
1E0001C0
0F000380
07800F00
03FDFE00
00FFFC00
003FE000
00070000
00060000
00060000
000E0000
000F8000
00038000
0001C000
0000C000
0000C000
0001C000
00378000
003F8000
003E0000
ENDCHAR
STARTCHAR 00E8
ENCODING 232
SWIDTH 565 0
DWIDTH 33 0
BBX 29 44 2 0
BITMAP
001C0000
000C0000
000E0000
00060000
00060000
00070000
00030000
00038000
00000000
00000000
00000000
00000000
001FE000
00FFF800
03FDFE00
07C00F00
0F000380
1E0001C0
1C0000E0
380000E0
30000070
70000070
70000030
60000038
60000038
E0000038
E0000038
FFFFFFF8
FFFFFFF8
E0000000
E0000000
60000000
60000000
70000000
70000000
30000020
38000070
1C0000E0
1C0001E0
0F0003C0
07800F80
03FDFE00
00FFFC00
001FE000
ENDCHAR
STARTCHAR 00E9
ENCODING 233
SWIDTH 565 0
DWIDTH 33 0
BBX 29 44 2 0
BITMAP
00006000
0000E000
0000C000
0000C000
0001C000
00018000
00038000
00038000
00000000
00000000
00000000
00000000
001FE000
00FFF800
03FDFE00
07C00F00
0F000380
1E0001C0
1C0000E0
380000E0
30000070
70000070
70000030
60000038
60000038
E0000038
E0000038
FFFFFFF8
FFFFFFF8
E0000000
E0000000
60000000
60000000
70000000
70000000
30000020
38000070
1C0000E0
1C0001E0
0F0003C0
07800F80
03FDFE00
00FFFC00
001FE000
ENDCHAR
STARTCHAR 00EA
ENCODING 234
SWIDTH 565 0
DWIDTH 33 0
BBX 29 43 2 0
BITMAP
00078000
000F8000
001DC000
0038E000
00387000
00703800
00E01C00
00000000
00000000
00000000
00000000
001FE000
00FFF800
03FDFE00
07C00F00
0F000380
1E0001C0
1C0000E0
380000E0
30000070
70000070
70000030
60000038
60000038
E0000038
E0000038
FFFFFFF8
FFFFFFF8
E0000000
E0000000
60000000
60000000
70000000
70000000
30000020
38000070
1C0000E0
1C0001E0
0F0003C0
07800F80
03FDFE00
00FFFC00
001FE000
ENDCHAR
STARTCHAR 00EB
ENCODING 235
SWIDTH 565 0
DWIDTH 33 0
BBX 29 42 2 0
BITMAP
00E03C00
00E03C00
00E03C00
00E03C00
00000000
00000000
00000000
00000000
00000000
00000000
001FE000
00FFF800
03FDFE00
07C00F00
0F000380
1E0001C0
1C0000E0
380000E0
30000070
70000070
70000030
60000038
60000038
E0000038
E0000038
FFFFFFF8
FFFFFFF8
E0000000
E0000000
60000000
60000000
70000000
70000000
30000020
38000070
1C0000E0
1C0001E0
0F0003C0
07800F80
03FDFE00
00FFFC00
001FE000
ENDCHAR
STARTCHAR 00EC
ENCODING 236
SWIDTH 205 0
DWIDTH 12 0
BBX 5 45 2 0
BITMAP
C0
E0
60
70
70
30
38
38
00
00
00
00
00
18
18
18
18
18
18
18
18
18
18
18
18
18
18
18
18
18
18
18
18
18
18
18
18
18
18
18
18
18
18
18
18
ENDCHAR
STARTCHAR 00ED
ENCODING 237
SWIDTH 205 0
DWIDTH 12 0
BBX 5 45 5 0
BITMAP
38
30
30
70
60
E0
E0
C0
00
00
00
00
00
C0
C0
C0
C0
C0
C0
C0
C0
C0
C0
C0
C0
C0
C0
C0
C0
C0
C0
C0
C0
C0
C0
C0
C0
C0
C0
C0
C0
C0
C0
C0
C0
ENDCHAR
STARTCHAR 00EE
ENCODING 238
SWIDTH 205 0
DWIDTH 12 0
BBX 14 44 -1 0
BITMAP
0780
0FC0
1DC0
1CE0
3870
7038
E01C
0000
0000
0000
0000
0000
0300
0300
0300
0300
0300
0300
0300
0300
0300
0300
0300
0300
0300
0300
0300
0300
0300
0300
0300
0300
0300
0300
0300
0300
0300
0300
0300
0300
0300
0300
0300
0300
ENDCHAR
STARTCHAR 00EF
ENCODING 239
SWIDTH 205 0
DWIDTH 12 0
BBX 14 42 -1 0
BITMAP
E03C
E03C
E03C
E03C
0000
0000
0000
0000
0000
0000
0300
0300
0300
0300
0300
0300
0300
0300
0300
0300
0300
0300
0300
0300
0300
0300
0300
0300
0300
0300
0300
0300
0300
0300
0300
0300
0300
0300
0300
0300
0300
0300
ENDCHAR
STARTCHAR 00F0
ENCODING 240
SWIDTH 565 0
DWIDTH 33 0
BBX 29 44 2 1
BITMAP
00000700
00000E00
000E1C00
000FFC00
000FF800
00007C00
0000FE00
0001CF00
00038380
000383C0
000101C0
000000E0
000000E0
00000070
003FE070
00FFFC70
03FDFE30
07800FB8
0E0003F8
1C0001F8
380000F8
38000078
70000078
70000038
60000038
60000038
E0000038
E0000038
E0000038
E0000038
E0000038
E0000038
60000038
60000038
70000030
70000070
38000070
380000E0
1C0001C0
0E0003C0
07800F80
03FDFE00
00FFFC00
003FE000
ENDCHAR
STARTCHAR 00F1
ENCODING 241
SWIDTH 565 0
DWIDTH 33 0
BBX 26 42 4 0
BITMAP
01E03800
07F81800
077E3800
060FF000
0603E000
00000000
00000000
00000000
00000000
00000000
C07F8000
C1FFE000
C7F3F800
CF003C00
DE000E00
F8000700
F8000700
F0000380
F0000380
E0000180
E0000180
E00001C0
E00001C0
E00001C0
E00001C0
E00001C0
E00001C0
E00001C0
E00001C0
E00001C0
E00001C0
E00001C0
E00001C0
E00001C0
E00001C0
E00001C0
E00001C0
E00001C0
E00001C0
E00001C0
E00001C0
E00001C0
ENDCHAR
STARTCHAR 00F2
ENCODING 242
SWIDTH 565 0
DWIDTH 33 0
BBX 29 44 2 0
BITMAP
00180000
001C0000
001C0000
000C0000
000E0000
000E0000
00060000
00070000
00000000
00000000
00000000
00000000
001FE000
00FFFC00
03FDFE00
07800F80
0F000380
1E0001C0
1C0000E0
380000E0
30000070
70000070
70000030
60000038
60000038
E0000038
E0000038
E0000038
E0000038
E0000038
E0000038
60000038
60000038
70000030
70000070
30000070
380000E0
1C0000E0
1E0001C0
0F000380
07800F80
03FDFE00
00FFFC00
003FE000
ENDCHAR
STARTCHAR 00F3
ENCODING 243
SWIDTH 565 0
DWIDTH 33 0
BBX 29 44 2 0
BITMAP
0000C000
0000C000
0001C000
00018000
00038000
00038000
00030000
00070000
00000000
00000000
00000000
00000000
001FE000
00FFFC00
03FDFE00
07800F80
0F000380
1E0001C0
1C0000E0
380000E0
30000070
70000070
70000030
60000038
60000038
E0000038
E0000038
E0000038
E0000038
E0000038
E0000038
60000038
60000038
70000030
70000070
30000070
380000E0
1C0000E0
1E0001C0
0F000380
07800F80
03FDFE00
00FFFC00
003FE000
ENDCHAR
STARTCHAR 00F4
ENCODING 244
SWIDTH 565 0
DWIDTH 33 0
BBX 29 43 2 0
BITMAP
00078000
000F8000
001DC000
0038E000
00387000
00703800
00E01C00
00000000
00000000
00000000
00000000
001FE000
00FFFC00
03FDFE00
07800F80
0F000380
1E0001C0
1C0000E0
380000E0
30000070
70000070
70000030
60000038
60000038
E0000038
E0000038
E0000038
E0000038
E0000038
E0000038
60000038
60000038
70000030
70000070
30000070
380000E0
1C0000E0
1E0001C0
0F000380
07800F80
03FDFE00
00FFFC00
003FE000
ENDCHAR
STARTCHAR 00F5
ENCODING 245
SWIDTH 565 0
DWIDTH 33 0
BBX 29 41 2 0
BITMAP
00FC0600
01FF0E00
018FCE00
0183FC00
0180F800
00000000
00000000
00000000
00000000
001FE000
00FFFC00
03FDFE00
07800F80
0F000380
1E0001C0
1C0000E0
380000E0
30000070
70000070
70000030
60000038
60000038
E0000038
E0000038
E0000038
E0000038
E0000038
E0000038
60000038
60000038
70000030
70000070
30000070
380000E0
1C0000E0
1E0001C0
0F000380
07800F80
03FDFE00
00FFFC00
003FE000
ENDCHAR
STARTCHAR 00F6
ENCODING 246
SWIDTH 565 0
DWIDTH 33 0
BBX 29 42 2 0
BITMAP
00E03C00
00E03C00
00E03C00
00E03C00
00000000
00000000
00000000
00000000
00000000
00000000
001FE000
00FFFC00
03FDFE00
07800F80
0F000380
1E0001C0
1C0000E0
380000E0
30000070
70000070
70000030
60000038
60000038
E0000038
E0000038
E0000038
E0000038
E0000038
E0000038
60000038
60000038
70000030
70000070
30000070
380000E0
1C0000E0
1E0001C0
0F000380
07800F80
03FDFE00
00FFFC00
003FE000
ENDCHAR
STARTCHAR 00F7
ENCODING 247
SWIDTH 548 0
DWIDTH 32 0
BBX 25 18 3 12
BITMAP
001C0000
001C0000
001C0000
001C0000
00000000
00000000
00000000
00000000
FFFFFF80
FFFFFF80
00000000
00000000
00000000
00000000
00000000
001C0000
001C0000
001C0000
ENDCHAR
STARTCHAR 00F8
ENCODING 248
SWIDTH 565 0
DWIDTH 33 0
BBX 31 32 1 0
BITMAP
000FF004
007FFE0E
01FEFF9E
03E007FC
078001F8
0F0000F0
0E0000F0
1C0001F8
1C0003B8
38000738
38000E1C
30001C1C
3000381C
7000701C
7000E01C
7001C01C
7003801C
7007001C
700E001C
701C001C
3038001C
38700018
38E00038
39C00038
1F800070
1F000070
0F0000E0
1F8001C0
3FC00780
71FEFF00
E07FFE00
400FF000
ENDCHAR
STARTCHAR 00F9
ENCODING 249
SWIDTH 565 0
DWIDTH 33 0
BBX 26 45 3 0
BITMAP
00380000
00180000
001C0000
001C0000
000C0000
000E0000
000E0000
00060000
00000000
00000000
00000000
00000000
00000000
E00000C0
E00000C0
E00000C0
E00000C0
E00000C0
E00000C0
E00000C0
E00000C0
E00000C0
E00000C0
E00000C0
E00000C0
E00000C0
E00000C0
E00000C0
E00000C0
E00000C0
E00000C0
E00000C0
600000C0
600000C0
600001C0
700001C0
700001C0
300003C0
380003C0
1C0007C0
1E000EC0
0F003CC0
07F3F8C0
01FFF0C0
007F80C0
ENDCHAR
STARTCHAR 00FA
ENCODING 250
SWIDTH 565 0
DWIDTH 33 0
BBX 26 45 3 0
BITMAP
00018000
00038000
00030000
00030000
00070000
00060000
000E0000
000E0000
00000000
00000000
00000000
00000000
00000000
E00000C0
E00000C0
E00000C0
E00000C0
E00000C0
E00000C0
E00000C0
E00000C0
E00000C0
E00000C0
E00000C0
E00000C0
E00000C0
E00000C0
E00000C0
E00000C0
E00000C0
E00000C0
E00000C0
600000C0
600000C0
600001C0
700001C0
700001C0
300003C0
380003C0
1C0007C0
1E000EC0
0F003CC0
07F3F8C0
01FFF0C0
007F80C0
ENDCHAR
STARTCHAR 00FB
ENCODING 251
SWIDTH 565 0
DWIDTH 33 0
BBX 26 44 3 0
BITMAP
000E0000
001F0000
003B8000
0071C000
00E0E000
01C0E000
03807000
00000000
00000000
00000000
00000000
00000000
E00000C0
E00000C0
E00000C0
E00000C0
E00000C0
E00000C0
E00000C0
E00000C0
E00000C0
E00000C0
E00000C0
E00000C0
E00000C0
E00000C0
E00000C0
E00000C0
E00000C0
E00000C0
E00000C0
600000C0
600000C0
600001C0
700001C0
700001C0
300003C0
380003C0
1C0007C0
1E000EC0
0F003CC0
07F3F8C0
01FFF0C0
007F80C0
ENDCHAR
STARTCHAR 00FC
ENCODING 252
SWIDTH 565 0
DWIDTH 33 0
BBX 26 42 3 0
BITMAP
03C07000
03C07000
03C07000
03C07000
00000000
00000000
00000000
00000000
00000000
00000000
E00000C0
E00000C0
E00000C0
E00000C0
E00000C0
E00000C0
E00000C0
E00000C0
E00000C0
E00000C0
E00000C0
E00000C0
E00000C0
E00000C0
E00000C0
E00000C0
E00000C0
E00000C0
E00000C0
600000C0
600000C0
600001C0
700001C0
700001C0
300003C0
380003C0
1C0007C0
1E000EC0
0F003CC0
07F3F8C0
01FFF0C0
007F80C0
ENDCHAR
STARTCHAR 00FD
ENCODING 253
SWIDTH 514 0
DWIDTH 30 0
BBX 27 59 1 -14
BITMAP
00018000
00038000
00038000
00030000
00070000
00070000
00060000
000E0000
00000000
00000000
00000000
00000000
00000000
E00000E0
600000E0
700000C0
300001C0
38000180
38000380
18000380
1C000300
0C000700
0E000700
0E000600
07000E00
07000E00
03000C00
03801C00
03801800
01C03800
01C03800
00C03000
00E07000
00E07000
00706000
0070E000
0030E000
0038C000
0019C000
001D8000
001F8000
000F8000
000F0000
00070000
00070000
00060000
000E0000
000E0000
000C0000
001C0000
00180000
00380000
00380000
00300000
00700000
00700000
00600000
00E00000
00E00000
ENDCHAR
STARTCHAR 00FE
ENCODING 254
SWIDTH 582 0
DWIDTH 34 0
BBX 27 55 4 -13
BITMAP
E0000000
E0000000
E0000000
E0000000
E0000000
E0000000
E0000000
E0000000
E0000000
E0000000
E03FC000
E0FFF000
E3FBFC00
E7803E00
EE000F00
FC000700
F8000380
F00001C0
F00001C0
E00000C0
E00000E0
E00000E0
E00000E0
C00000E0
C0000060
C0000060
C0000060
C0000060
C00000E0
E00000E0
E00000E0
E00000E0
E00000C0
F00001C0
F00001C0
F8000380
FC000700
EE000F00
E7803E00
E3FBFC00
E1FFF000
E03F8000
E0000000
E0000000
E0000000
E0000000
E0000000
E0000000
E0000000
E0000000
E0000000
E0000000
E0000000
E0000000
E0000000
ENDCHAR
STARTCHAR 00FF
ENCODING 255
SWIDTH 514 0
DWIDTH 30 0
BBX 27 56 1 -14
BITMAP
01C07800
01C07800
01C07800
01C07800
00000000
00000000
00000000
00000000
00000000
00000000
E00000E0
600000E0
700000C0
300001C0
38000180
38000380
18000380
1C000300
0C000700
0E000700
0E000600
07000E00
07000E00
03000C00
03801C00
03801800
01C03800
01C03800
00C03000
00E07000
00E07000
00706000
0070E000
0030E000
0038C000
0019C000
001D8000
001F8000
000F8000
000F0000
00070000
00070000
00060000
000E0000
000E0000
000C0000
001C0000
00180000
00380000
00380000
00300000
00700000
00700000
00600000
00E00000
00E00000
ENDCHAR
ENDFONT
